name: MS Serif 24
family: MS Serif
copyright: (c) Copyright Microsoft Corp. 1987-95. All rights reserved.
point-size: 24
dpi: 120 120
spacing: proportional
ascent: 31
offset: 0 -9
encoding: windows-1254
default-char: 128
converter: monobit v0.11
source-name: serifft.fon
source-format: Windows FNT v2.0 (NE FON container)

0x20:
u+0020:
    ..........
    ..........
    ..........
    ..........
    ..........
    ..........
    ..........
    ..........
    ..........
    ..........
    ..........
    ..........
    ..........
    ..........
    ..........
    ..........
    ..........
    ..........
    ..........
    ..........
    ..........
    ..........
    ..........
    ..........
    ..........
    ..........
    ..........
    ..........
    ..........
    ..........
    ..........
    ..........
    ..........
    ..........
    ..........
    ..........
    ..........
    ..........
    ..........
    ..........
    ..........
    ..........
    ..........

0x21:
u+0021:
    .............
    .............
    .............
    .............
    .............
    .............
    .............
    .....@@@.....
    ....@@@@@....
    ....@@@@@....
    ....@@@@@....
    ....@@@@@....
    ....@@@@@....
    ....@@@@@....
    .....@@@.....
    .....@@@.....
    .....@@@.....
    .....@@@.....
    .....@@@.....
    .....@@@.....
    .....@@@.....
    .....@@@.....
    ......@......
    ......@......
    ......@......
    ......@......
    .............
    .............
    .............
    .....@@@.....
    ....@@@@@....
    ....@@@@@....
    ....@@@@@....
    .....@@@.....
    .............
    .............
    .............
    .............
    .............
    .............
    .............
    .............
    .............

0x22:
u+0022:
    ................
    ................
    ................
    ................
    ................
    ................
    ................
    ...@@@....@@@...
    ...@@@....@@@...
    ...@@@....@@@...
    ...@@@....@@@...
    ...@@@....@@@...
    ...@@@....@@@...
    ...@@@....@@@...
    ....@......@....
    ....@......@....
    ....@......@....
    ....@......@....
    ....@......@....
    ................
    ................
    ................
    ................
    ................
    ................
    ................
    ................
    ................
    ................
    ................
    ................
    ................
    ................
    ................
    ................
    ................
    ................
    ................
    ................
    ................
    ................
    ................
    ................

0x23:
u+0023:
    ....................
    ....................
    ....................
    ....................
    ....................
    ....................
    ....................
    .......@@@.....@@@..
    .......@@@.....@@@..
    .......@@@.....@@@..
    ......@@@.....@@@...
    ......@@@.....@@@...
    ......@@@.....@@@...
    ......@@@.....@@@...
    .....@@@.....@@@....
    ..@@@@@@@@@@@@@@@@@@
    ..@@@@@@@@@@@@@@@@@@
    .....@@@.....@@@....
    .....@@@.....@@@....
    .....@@@.....@@@....
    ....@@@.....@@@.....
    ....@@@.....@@@.....
    ....@@@.....@@@.....
    @@@@@@@@@@@@@@@@@@..
    @@@@@@@@@@@@@@@@@@..
    ....@@@.....@@@.....
    ....@@@.....@@@.....
    ...@@@.....@@@......
    ...@@@.....@@@......
    ...@@@.....@@@......
    ...@@@.....@@@......
    ...@@@.....@@@......
    ..@@@.....@@@.......
    ..@@@.....@@@.......
    ....................
    ....................
    ....................
    ....................
    ....................
    ....................
    ....................
    ....................
    ....................

0x24:
u+0024:
    ....................
    ....................
    ....................
    ....................
    .........@@.........
    .........@@.........
    .........@@.........
    ......@@@@@@@@......
    ....@@@@.@@.@@@@@...
    ...@@@...@@...@@@...
    ...@@@...@@....@@...
    ..@@@....@@....@@...
    ..@@@....@@.....@...
    ..@@@....@@.....@...
    ..@@@@...@@.........
    ...@@@@..@@.........
    ...@@@@@.@@.........
    ....@@@@@@@.........
    .....@@@@@@@........
    ......@@@@@@@.......
    ........@@@@@@@.....
    .........@@@@@@@....
    .........@@@@@@@@...
    .........@@..@@@@...
    .........@@...@@@@..
    .........@@...@@@@..
    .........@@....@@@..
    ..@......@@....@@@..
    ..@......@@....@@@..
    ..@@.....@@....@@@..
    ..@@.....@@...@@@...
    ..@@@....@@...@@@...
    ..@@@@@..@@.@@@@....
    .....@@@@@@@@@......
    .........@@.........
    .........@@.........
    .........@@.........
    ....................
    ....................
    ....................
    ....................
    ....................
    ....................

0x25:
u+0025:
    .................................
    .................................
    .................................
    .................................
    .................................
    .................................
    .........................@@......
    .........@@@@..........@@@.......
    .......@@@@@@@@......@@@@@.......
    ......@@@@...@@@@@.@@@.@@........
    .....@@@@.....@@@@@@..@@.........
    .....@@@.......@......@@.........
    ....@@@@.......@.....@@..........
    ....@@@........@....@@...........
    ...@@@@.......@@....@@...........
    ...@@@@.......@....@@............
    ...@@@.......@@....@@............
    ...@@@.......@....@@.............
    ...@@@......@@...@@..............
    ....@@.....@@....@@.....@@@@.....
    ....@@@..@@@....@@....@@@@@@@@...
    ......@@@@......@@...@@@@...@@...
    ...............@@...@@@@.....@@..
    ..............@@....@@@......@@..
    ..............@@...@@@@.......@..
    .............@@....@@@........@..
    .............@@...@@@@.......@@..
    ............@@....@@@@.......@...
    ...........@@.....@@@.......@@...
    ...........@@.....@@@.......@....
    ..........@@......@@@......@@....
    ..........@@.......@@.....@@.....
    .........@@........@@@..@@@......
    ........@@...........@@@@........
    ........@@.......................
    .................................
    .................................
    .................................
    .................................
    .................................
    .................................
    .................................
    .................................

0x26:
u+0026:
    ...............................
    ...............................
    ...............................
    ...............................
    ...............................
    ...............................
    ...............................
    .............@@@@..............
    ...........@@@..@@@............
    ..........@@@....@@............
    ..........@@......@@...........
    .........@@@......@@...........
    .........@@@.....@@............
    .........@@@.....@@............
    .........@@@@...@@.............
    .........@@@@..@@..............
    ..........@@@@@@....@@@@@@@@...
    ..........@@@@@.......@@@@.....
    ..........@@@@.........@@......
    ........@@@@@@@........@@......
    ......@@@..@@@@.......@@.......
    .....@@@....@@@@......@........
    ....@@@.....@@@@@....@@........
    ...@@@@......@@@@....@.........
    ...@@@........@@@@..@@.........
    ..@@@@.........@@@@@@..........
    ..@@@@.........@@@@@...........
    ..@@@@..........@@@@@..........
    ..@@@@@..........@@@@@.........
    ...@@@@........@@@@@@@@......@.
    ...@@@@@@.....@@@..@@@@@.....@.
    ....@@@@@@@@@@@@....@@@@@@..@@.
    .....@@@@@@@@@.......@@@@@@@@..
    .......@@@@@...........@@@@@...
    ...............................
    ...............................
    ...............................
    ...............................
    ...............................
    ...............................
    ...............................
    ...............................
    ...............................

0x27:
u+0027:
    .......
    .......
    .......
    .......
    .......
    .......
    .......
    ..@@@..
    ..@@@..
    ..@@@..
    ..@@@..
    ..@@@..
    ..@@@..
    ..@@@..
    ...@...
    ...@...
    ...@...
    ...@...
    ...@...
    .......
    .......
    .......
    .......
    .......
    .......
    .......
    .......
    .......
    .......
    .......
    .......
    .......
    .......
    .......
    .......
    .......
    .......
    .......
    .......
    .......
    .......
    .......
    .......

0x28:
u+0028:
    .............
    .............
    .............
    .............
    .............
    .............
    .............
    ...........@@
    .........@@@.
    ........@@...
    .......@@....
    ......@@@....
    .....@@@.....
    .....@@......
    ....@@@......
    ....@@.......
    ...@@@.......
    ...@@@.......
    ...@@@.......
    ..@@@........
    ..@@@........
    ..@@@........
    ..@@@........
    ..@@@........
    ..@@@........
    ..@@@........
    ..@@@........
    ..@@@........
    ..@@@........
    ..@@@........
    ..@@@........
    ...@@@.......
    ...@@@.......
    ...@@@.......
    ....@@.......
    ....@@@......
    .....@@......
    .....@@@.....
    ......@@@....
    .......@@....
    ........@@...
    .........@@@.
    ...........@@

0x29:
u+0029:
    .............
    .............
    .............
    .............
    .............
    .............
    .............
    @@...........
    .@@@.........
    ...@@........
    ....@@.......
    ....@@@......
    .....@@@.....
    ......@@.....
    ......@@@....
    .......@@....
    .......@@@...
    .......@@@...
    .......@@@...
    ........@@@..
    ........@@@..
    ........@@@..
    ........@@@..
    ........@@@..
    ........@@@..
    ........@@@..
    ........@@@..
    ........@@@..
    ........@@@..
    ........@@@..
    ........@@@..
    .......@@@...
    .......@@@...
    .......@@@...
    .......@@....
    ......@@@....
    ......@@.....
    .....@@@.....
    ....@@@......
    ....@@.......
    ...@@........
    .@@@.........
    @@...........

0x2a:
u+002a:
    ....................
    ....................
    ....................
    ....................
    ....................
    ....................
    ....................
    .........@..........
    ........@@@.........
    ........@@@.........
    ....@@...@...@@.....
    ...@@@@..@..@@@@....
    ....@@@@.@.@@@@.....
    .......@@@@@........
    .......@@@@@........
    ....@@@@.@.@@@@.....
    ...@@@@..@..@@@@....
    ....@@...@...@@.....
    ........@@@.........
    ........@@@.........
    .........@..........
    ....................
    ....................
    ....................
    ....................
    ....................
    ....................
    ....................
    ....................
    ....................
    ....................
    ....................
    ....................
    ....................
    ....................
    ....................
    ....................
    ....................
    ....................
    ....................
    ....................
    ....................
    ....................

0x2b:
u+002b:
    ......................
    ......................
    ......................
    ......................
    ......................
    ......................
    ......................
    ......................
    ......................
    ......................
    ..........@@@.........
    ..........@@@.........
    ..........@@@.........
    ..........@@@.........
    ..........@@@.........
    ..........@@@.........
    ..........@@@.........
    ..........@@@.........
    ..........@@@.........
    ..@@@@@@@@@@@@@@@@@@@.
    ..@@@@@@@@@@@@@@@@@@@.
    ..@@@@@@@@@@@@@@@@@@@.
    ..........@@@.........
    ..........@@@.........
    ..........@@@.........
    ..........@@@.........
    ..........@@@.........
    ..........@@@.........
    ..........@@@.........
    ..........@@@.........
    ..........@@@.........
    ......................
    ......................
    ......................
    ......................
    ......................
    ......................
    ......................
    ......................
    ......................
    ......................
    ......................
    ......................

0x2c:
u+002c:
    ..........
    ..........
    ..........
    ..........
    ..........
    ..........
    ..........
    ..........
    ..........
    ..........
    ..........
    ..........
    ..........
    ..........
    ..........
    ..........
    ..........
    ..........
    ..........
    ..........
    ..........
    ..........
    ..........
    ..........
    ..........
    ..........
    ..........
    ..........
    ..........
    ...@@@....
    ..@@@@@...
    ..@@@@@@..
    ..@@@@@@..
    ...@@@@@..
    ......@@..
    .....@@...
    .....@@...
    ....@@....
    ...@@.....
    ..@.......
    ..........
    ..........
    ..........

0x2d:
u+002d:
    .............
    .............
    .............
    .............
    .............
    .............
    .............
    .............
    .............
    .............
    .............
    .............
    .............
    .............
    .............
    .............
    .............
    .............
    .............
    .............
    .............
    .............
    .............
    .@@@@@@@@@@@.
    .@@@@@@@@@@@.
    .............
    .............
    .............
    .............
    .............
    .............
    .............
    .............
    .............
    .............
    .............
    .............
    .............
    .............
    .............
    .............
    .............
    .............

0x2e:
u+002e:
    ..........
    ..........
    ..........
    ..........
    ..........
    ..........
    ..........
    ..........
    ..........
    ..........
    ..........
    ..........
    ..........
    ..........
    ..........
    ..........
    ..........
    ..........
    ..........
    ..........
    ..........
    ..........
    ..........
    ..........
    ..........
    ..........
    ..........
    ..........
    ..........
    ....@@@...
    ...@@@@@..
    ...@@@@@..
    ...@@@@@..
    ....@@@...
    ..........
    ..........
    ..........
    ..........
    ..........
    ..........
    ..........
    ..........
    ..........

0x2f:
u+002f:
    ...........
    ...........
    ...........
    ...........
    ...........
    ...........
    ...........
    .........@@
    .........@@
    .........@@
    ........@@.
    ........@@.
    ........@@.
    .......@@..
    .......@@..
    .......@@..
    ......@@...
    ......@@...
    ......@@...
    .....@@....
    .....@@....
    .....@@....
    ....@@.....
    ....@@.....
    ....@@.....
    ...@@......
    ...@@......
    ...@@......
    ..@@.......
    ..@@.......
    ..@@.......
    .@@........
    .@@........
    .@@........
    @@.........
    @@.........
    @@.........
    ...........
    ...........
    ...........
    ...........
    ...........
    ...........

0x30:
u+0030:
    ....................
    ....................
    ....................
    ....................
    ....................
    ....................
    ....................
    .......@@@@@@.......
    .....@@@....@@@.....
    ....@@@......@@@....
    ...@@@........@@@...
    ...@@@........@@@...
    ..@@@@........@@@@..
    ..@@@..........@@@..
    ..@@@..........@@@..
    .@@@@..........@@@@.
    .@@@@..........@@@@.
    .@@@@..........@@@@.
    .@@@@..........@@@@.
    .@@@@..........@@@@.
    .@@@@..........@@@@.
    .@@@@..........@@@@.
    .@@@@..........@@@@.
    .@@@@..........@@@@.
    .@@@@..........@@@@.
    .@@@@..........@@@@.
    ..@@@..........@@@..
    ..@@@..........@@@..
    ..@@@@........@@@@..
    ...@@@........@@@...
    ...@@@........@@@...
    ....@@@......@@@....
    .....@@@....@@@.....
    .......@@@@@@.......
    ....................
    ....................
    ....................
    ....................
    ....................
    ....................
    ....................
    ....................
    ....................

0x31:
u+0031:
    ....................
    ....................
    ....................
    ....................
    ....................
    ....................
    ....................
    ............@.......
    ..........@@@.......
    ........@@@@@.......
    ......@@@@@@@.......
    ....@@@..@@@@.......
    ....@....@@@@.......
    .........@@@@.......
    .........@@@@.......
    .........@@@@.......
    .........@@@@.......
    .........@@@@.......
    .........@@@@.......
    .........@@@@.......
    .........@@@@.......
    .........@@@@.......
    .........@@@@.......
    .........@@@@.......
    .........@@@@.......
    .........@@@@.......
    .........@@@@.......
    .........@@@@.......
    .........@@@@.......
    .........@@@@.......
    .........@@@@.......
    .........@@@@.......
    ........@@@@@@......
    ....@@@@@@@@@@@@@@..
    ....................
    ....................
    ....................
    ....................
    ....................
    ....................
    ....................
    ....................
    ....................

0x32:
u+0032:
    ....................
    ....................
    ....................
    ....................
    ....................
    ....................
    ....................
    .......@@@@@........
    .....@@@@@@@@@......
    ....@@@@@@@@@@@.....
    ...@@@....@@@@@@....
    ..@@.......@@@@@....
    ..@.........@@@@@...
    .@@..........@@@@...
    .@...........@@@@...
    .............@@@@...
    .............@@@@...
    .............@@@....
    .............@@@....
    ............@@@.....
    ............@@@.....
    ...........@@@......
    ..........@@@.......
    ..........@@........
    .........@@.........
    ........@@..........
    .......@@...........
    ......@@............
    .....@@...........@.
    ....@@...........@@.
    ...@@...........@@..
    ..@@@@@@@@@@@@@@@@..
    .@@@@@@@@@@@@@@@@...
    .@@@@@@@@@@@@@@@@...
    ....................
    ....................
    ....................
    ....................
    ....................
    ....................
    ....................
    ....................
    ....................

0x33:
u+0033:
    ....................
    ....................
    ....................
    ....................
    ....................
    ....................
    ....................
    ......@@@@@@........
    ....@@@@@@@@@@......
    ...@@@@@@@@@@@@.....
    ..@@@@....@@@@@.....
    ..@@.......@@@@@....
    .@@.........@@@@....
    .@..........@@@@....
    ............@@@.....
    ............@@@.....
    ...........@@@......
    ...........@@.......
    ..........@@........
    .......@@@@@@@......
    .....@@@@@@@@@@@....
    ..........@@@@@@@...
    ............@@@@@...
    .............@@@@@..
    .............@@@@@..
    ..............@@@@..
    ..............@@@@..
    ..............@@@...
    ..............@@@...
    .............@@@....
    ..@@.........@@.....
    .@@@@......@@@......
    .@@@@@@..@@@@.......
    ...@@@@@@@@.........
    ....................
    ....................
    ....................
    ....................
    ....................
    ....................
    ....................
    ....................
    ....................

0x34:
u+0034:
    ....................
    ....................
    ....................
    ....................
    ....................
    ....................
    ....................
    ..............@@....
    .............@@@....
    ............@@@@....
    ...........@@@@@....
    ..........@@@@@@....
    .........@@.@@@@....
    .........@@.@@@@....
    ........@@..@@@@....
    .......@@...@@@@....
    ......@@....@@@@....
    ......@@....@@@@....
    .....@@.....@@@@....
    ....@@......@@@@....
    ...@@.......@@@@....
    ...@@.......@@@@....
    ..@@........@@@@....
    .@@.........@@@@....
    .@@@@@@@@@@@@@@@@@@@
    .@@@@@@@@@@@@@@@@@@@
    .@@@@@@@@@@@@@@@@@@@
    ............@@@@....
    ............@@@@....
    ............@@@@....
    ............@@@@....
    ............@@@@....
    ............@@@@....
    ............@@@@....
    ....................
    ....................
    ....................
    ....................
    ....................
    ....................
    ....................
    ....................
    ....................

0x35:
u+0035:
    ....................
    ....................
    ....................
    ....................
    ....................
    ....................
    .................@..
    .......@@@@@@@@@@@..
    ......@@@@@@@@@@@...
    ......@@@@@@@@@@....
    .....@@.............
    .....@..............
    ....@@..............
    ....@...............
    ...@@@@@............
    ...@@@@@@@@.........
    ..@@@@@@@@@@@.......
    ......@@@@@@@@......
    .........@@@@@@.....
    ...........@@@@@....
    ............@@@@....
    .............@@@@...
    .............@@@@...
    ..............@@@...
    ..............@@@...
    ..............@@@...
    ..............@@@...
    ..............@@@...
    ..............@@....
    .............@@@....
    ..@@.........@@.....
    .@@@@.......@@......
    .@@@@@@..@@@@.......
    ...@@@@@@@@.........
    ....................
    ....................
    ....................
    ....................
    ....................
    ....................
    ....................
    ....................
    ....................

0x36:
u+0036:
    ....................
    ....................
    ....................
    ....................
    ....................
    ....................
    ....................
    ..............@@@@..
    ...........@@@@.....
    .........@@@@.......
    ........@@@.........
    ......@@@@..........
    .....@@@@...........
    .....@@@............
    ....@@@.............
    ...@@@@.............
    ...@@@..............
    ..@@@@.@@@@@@.......
    ..@@@@@@@..@@@@@....
    ..@@@@@......@@@@...
    .@@@@@........@@@@..
    .@@@@.........@@@@..
    .@@@@..........@@@@.
    .@@@@..........@@@@.
    .@@@@..........@@@@.
    .@@@@..........@@@@.
    .@@@@..........@@@@.
    ..@@@..........@@@@.
    ..@@@@.........@@@..
    ..@@@@........@@@@..
    ...@@@........@@@...
    ....@@@......@@@....
    .....@@@@..@@@@.....
    ........@@@@@.......
    ....................
    ....................
    ....................
    ....................
    ....................
    ....................
    ....................
    ....................
    ....................

0x37:
u+0037:
    ....................
    ....................
    ....................
    ....................
    ....................
    ....................
    ....................
    ...@@@@@@@@@@@@@@@@.
    ...@@@@@@@@@@@@@@@..
    ..@@@@@@@@@@@@@@@@..
    ..@@...........@@@..
    .@@............@@...
    .@.............@@...
    ..............@@@...
    ..............@@....
    ..............@@....
    .............@@@....
    .............@@.....
    ............@@@.....
    ............@@@.....
    ............@@......
    ...........@@@......
    ...........@@@......
    ...........@@.......
    ..........@@@.......
    ..........@@........
    ..........@@........
    .........@@@........
    .........@@.........
    .........@@.........
    ........@@@.........
    ........@@..........
    ........@@..........
    .......@@@..........
    ....................
    ....................
    ....................
    ....................
    ....................
    ....................
    ....................
    ....................
    ....................

0x38:
u+0038:
    ....................
    ....................
    ....................
    ....................
    ....................
    ....................
    ....................
    .......@@@@@@.......
    .....@@@...@@@@.....
    ....@@.......@@@....
    ...@@.........@@@...
    ...@@..........@@...
    ..@@@..........@@@..
    ..@@@..........@@@..
    ..@@@..........@@@..
    ..@@@@........@@@...
    ...@@@@.......@@@...
    ...@@@@@.....@@.....
    ....@@@@@@.@@@......
    .....@@@@@@@........
    .......@@@@@@.......
    .....@@..@@@@@@.....
    ....@@....@@@@@@....
    ...@@.......@@@@@...
    ..@@@........@@@@@..
    ..@@..........@@@@..
    .@@@...........@@@@.
    .@@@...........@@@@.
    .@@@...........@@@@.
    ..@@...........@@@..
    ..@@@.........@@@@..
    ...@@@........@@@...
    ....@@@@...@@@@.....
    .......@@@@@@.......
    ....................
    ....................
    ....................
    ....................
    ....................
    ....................
    ....................
    ....................
    ....................

0x39:
u+0039:
    ....................
    ....................
    ....................
    ....................
    ....................
    ....................
    ....................
    .......@@@@@........
    .....@@@@..@@@@.....
    ....@@@......@@@....
    ...@@@........@@@...
    ..@@@@........@@@@..
    ..@@@.........@@@@..
    .@@@@..........@@@..
    .@@@@..........@@@@.
    .@@@@..........@@@@.
    .@@@@..........@@@@.
    .@@@@..........@@@@.
    .@@@@..........@@@@.
    ..@@@@.........@@@@.
    ..@@@@........@@@@@.
    ...@@@@......@@@@@..
    ....@@@@@..@@@@@@@..
    .......@@@@@@.@@@@..
    ..............@@@...
    .............@@@@...
    .............@@@....
    ............@@@.....
    ...........@@@@.....
    ..........@@@@......
    .........@@@........
    .......@@@@.........
    .....@@@@...........
    ..@@@@..............
    ....................
    ....................
    ....................
    ....................
    ....................
    ....................
    ....................
    ....................
    ....................

0x3a:
u+003a:
    ...........
    ...........
    ...........
    ...........
    ...........
    ...........
    ...........
    ...........
    ...........
    ...........
    ...........
    ...........
    ...........
    ...........
    ...........
    ....@@@....
    ...@@@@@...
    ...@@@@@...
    ...@@@@@...
    ....@@@....
    ...........
    ...........
    ...........
    ...........
    ...........
    ...........
    ...........
    ...........
    ...........
    ....@@@....
    ...@@@@@...
    ...@@@@@...
    ...@@@@@...
    ....@@@....
    ...........
    ...........
    ...........
    ...........
    ...........
    ...........
    ...........
    ...........
    ...........

0x3b:
u+003b:
    ...........
    ...........
    ...........
    ...........
    ...........
    ...........
    ...........
    ...........
    ...........
    ...........
    ...........
    ...........
    ...........
    ...........
    ...........
    ...@@@.....
    ..@@@@@....
    ..@@@@@....
    ..@@@@@....
    ...@@@.....
    ...........
    ...........
    ...........
    ...........
    ...........
    ...........
    ...........
    ...........
    ...........
    ...@@@.....
    ..@@@@@....
    ..@@@@@@...
    ..@@@@@@...
    ...@@@@@...
    ......@@...
    .....@@....
    .....@@....
    ....@@.....
    ...@@......
    ..@........
    ...........
    ...........
    ...........

0x3c:
u+003c:
    ......................
    ......................
    ......................
    ......................
    ......................
    ......................
    ......................
    ......................
    ......................
    ......................
    ......................
    ...................@..
    .................@@@..
    ...............@@@@@..
    .............@@@@@@...
    ...........@@@@@@.....
    .........@@@@@@.......
    .......@@@@@@.........
    .....@@@@@@...........
    ...@@@@@@.............
    ..@@@@@...............
    ..@@@@@...............
    ...@@@@@@.............
    .....@@@@@@...........
    .......@@@@@@.........
    .........@@@@@@.......
    ...........@@@@@@.....
    .............@@@@@@...
    ...............@@@@@..
    .................@@@..
    ...................@..
    ......................
    ......................
    ......................
    ......................
    ......................
    ......................
    ......................
    ......................
    ......................
    ......................
    ......................
    ......................

0x3d:
u+003d:
    ......................
    ......................
    ......................
    ......................
    ......................
    ......................
    ......................
    ......................
    ......................
    ......................
    ......................
    ......................
    ......................
    ......................
    ......................
    ..@@@@@@@@@@@@@@@@@@@.
    ..@@@@@@@@@@@@@@@@@@@.
    ..@@@@@@@@@@@@@@@@@@@.
    ......................
    ......................
    ......................
    ......................
    ......................
    ..@@@@@@@@@@@@@@@@@@@.
    ..@@@@@@@@@@@@@@@@@@@.
    ..@@@@@@@@@@@@@@@@@@@.
    ......................
    ......................
    ......................
    ......................
    ......................
    ......................
    ......................
    ......................
    ......................
    ......................
    ......................
    ......................
    ......................
    ......................
    ......................
    ......................
    ......................

0x3e:
u+003e:
    ......................
    ......................
    ......................
    ......................
    ......................
    ......................
    ......................
    ......................
    ......................
    ......................
    ......................
    ..@...................
    ..@@@.................
    ..@@@@@...............
    ...@@@@@@.............
    .....@@@@@@...........
    .......@@@@@@.........
    .........@@@@@@.......
    ...........@@@@@@.....
    .............@@@@@@...
    ...............@@@@@..
    ...............@@@@@..
    .............@@@@@@...
    ...........@@@@@@.....
    .........@@@@@@.......
    .......@@@@@@.........
    .....@@@@@@...........
    ...@@@@@@.............
    ..@@@@@...............
    ..@@@.................
    ..@...................
    ......................
    ......................
    ......................
    ......................
    ......................
    ......................
    ......................
    ......................
    ......................
    ......................
    ......................
    ......................

0x3f:
u+003f:
    ..................
    ..................
    ..................
    ..................
    ..................
    ..................
    ..................
    .......@@@@@......
    .....@@@..@@@@....
    ....@@.....@@@@...
    ....@@......@@@...
    ...@@@......@@@@..
    ...@@@@.....@@@@..
    ...@@@@.....@@@@..
    ....@@......@@@@..
    ............@@@...
    ...........@@@@...
    ...........@@@....
    ..........@@@.....
    ..........@@@.....
    ..........@@......
    .........@@.......
    .........@@.......
    ........@@........
    ........@@........
    ........@.........
    ..................
    ..................
    ..................
    .......@@@........
    ......@@@@@.......
    ......@@@@@.......
    ......@@@@@.......
    .......@@@........
    ..................
    ..................
    ..................
    ..................
    ..................
    ..................
    ..................
    ..................
    ..................

0x40:
u+0040:
    .....................................
    .....................................
    .....................................
    .....................................
    .....................................
    .....................................
    .................@@@@@@@@@...........
    ..............@@@@@@@@@@@@@@@........
    ............@@@@@@.......@@@@@.......
    ..........@@@@@............@@@@......
    .........@@@@................@@@.....
    ........@@@@.................@@@@....
    .......@@@@....................@@@...
    ......@@@@.....................@@@...
    .....@@@@.......................@@@..
    .....@@@@.........@@@@@...@@@...@@@..
    ....@@@@........@@@@@@@@@@@@@...@@@..
    ....@@@........@@@@@...@@@@@.....@@@.
    ...@@@@.......@@@@......@@@@.....@@@.
    ...@@@@......@@@@........@@@.....@@@.
    ...@@@@......@@@........@@@@.....@@@.
    ..@@@@......@@@@........@@@......@@@.
    ..@@@@......@@@.........@@@......@@@.
    ..@@@@.....@@@@........@@@@......@@@.
    ..@@@@.....@@@@........@@@.......@@@.
    ..@@@@.....@@@@........@@@......@@@..
    ..@@@@.....@@@........@@@@......@@@..
    ..@@@@.....@@@@.......@@@@......@@@..
    ...@@@@....@@@@......@@@@@.....@@@...
    ...@@@@.....@@@@....@@@.@@@...@@@@...
    ...@@@@.....@@@@@@@@@@...@@@@@@@@....
    ....@@@@......@@@@@@......@@@@@......
    ....@@@@@............................
    .....@@@@............................
    ......@@@@...........................
    .......@@@@...................@@.....
    ........@@@@@...............@@@@.....
    ..........@@@@@@.........@@@@@.......
    ............@@@@@@@@@@@@@@@@.........
    ...............@@@@@@@@@@............
    .....................................
    .....................................
    .....................................

0x41:
u+0041:
    ..............................
    ..............................
    ..............................
    ..............................
    ..............................
    ..............................
    ..............................
    ...............@..............
    ..............@@@.............
    ..............@@@.............
    .............@@@@@............
    .............@@@@@............
    .............@@@@@@...........
    ............@@.@@@@...........
    ............@..@@@@@..........
    ...........@@...@@@@..........
    ...........@....@@@@@.........
    ..........@@.....@@@@.........
    ..........@......@@@@.........
    ..........@......@@@@@........
    .........@@.......@@@@........
    .........@........@@@@@.......
    ........@@.........@@@@.......
    ........@..........@@@@@......
    ........@@@@@@@@@@@@@@@@......
    .......@@...........@@@@......
    .......@............@@@@@.....
    ......@@.............@@@@.....
    ......@..............@@@@@....
    .....@@..............@@@@@....
    .....@@...............@@@@@...
    ....@@@...............@@@@@...
    ...@@@@@.............@@@@@@@..
    .@@@@@@@@@........@@@@@@@@@@@@
    ..............................
    ..............................
    ..............................
    ..............................
    ..............................
    ..............................
    ..............................
    ..............................
    ..............................

0x42:
u+0042:
    .........................
    .........................
    .........................
    .........................
    .........................
    .........................
    .........................
    .@@@@@@@@@@@@@@@@@.......
    ....@@@@@@.....@@@@@.....
    .....@@@@........@@@@@...
    .....@@@@.........@@@@...
    .....@@@@..........@@@@..
    .....@@@@..........@@@@..
    .....@@@@..........@@@@..
    .....@@@@..........@@@@..
    .....@@@@..........@@@@..
    .....@@@@.........@@@@...
    .....@@@@.........@@@@...
    .....@@@@.......@@@@.....
    .....@@@@@@@@@@@@@@......
    .....@@@@.......@@@@@....
    .....@@@@.........@@@@...
    .....@@@@..........@@@@..
    .....@@@@..........@@@@..
    .....@@@@...........@@@@.
    .....@@@@...........@@@@.
    .....@@@@...........@@@@.
    .....@@@@...........@@@@.
    .....@@@@...........@@@@.
    .....@@@@..........@@@@..
    .....@@@@..........@@@@..
    .....@@@@.........@@@@...
    ....@@@@@@......@@@@@....
    .@@@@@@@@@@@@@@@@@@......
    .........................
    .........................
    .........................
    .........................
    .........................
    .........................
    .........................
    .........................
    .........................

0x43:
u+0043:
    ...........................
    ...........................
    ...........................
    ...........................
    ...........................
    ...........................
    ...........................
    ...........@@@@@@@@@@...@..
    ........@@@@@......@@@@@@..
    .......@@@@..........@@@@..
    .....@@@@.............@@@@.
    .....@@@@..............@@@.
    ....@@@@................@@.
    ...@@@@..................@.
    ...@@@@....................
    ...@@@@....................
    ..@@@@.....................
    ..@@@@.....................
    ..@@@@.....................
    ..@@@@.....................
    ..@@@@.....................
    ..@@@@.....................
    ..@@@@.....................
    ..@@@@.....................
    ..@@@@.....................
    ...@@@@....................
    ...@@@@....................
    ...@@@@....................
    ....@@@@................@@.
    .....@@@@..............@@..
    .....@@@@.............@@...
    .......@@@@.........@@@....
    ........@@@@@.....@@@......
    ...........@@@@@@@@........
    ...........................
    ...........................
    ...........................
    ...........................
    ...........................
    ...........................
    ...........................
    ...........................
    ...........................

0x44:
u+0044:
    ............................
    ............................
    ............................
    ............................
    ............................
    ............................
    ............................
    .@@@@@@@@@@@@@@@@@..........
    ....@@@@@@.....@@@@@@.......
    .....@@@@.........@@@@......
    .....@@@@...........@@@@....
    .....@@@@...........@@@@....
    .....@@@@............@@@@...
    .....@@@@.............@@@@..
    .....@@@@.............@@@@..
    .....@@@@.............@@@@..
    .....@@@@..............@@@@.
    .....@@@@..............@@@@.
    .....@@@@..............@@@@.
    .....@@@@..............@@@@.
    .....@@@@..............@@@@.
    .....@@@@..............@@@@.
    .....@@@@..............@@@@.
    .....@@@@..............@@@@.
    .....@@@@..............@@@@.
    .....@@@@.............@@@@..
    .....@@@@.............@@@@..
    .....@@@@.............@@@@..
    .....@@@@............@@@@...
    .....@@@@...........@@@@....
    .....@@@@...........@@@@....
    .....@@@@.........@@@@......
    ....@@@@@@.....@@@@@@.......
    .@@@@@@@@@@@@@@@@@..........
    ............................
    ............................
    ............................
    ............................
    ............................
    ............................
    ............................
    ............................
    ............................

0x45:
u+0045:
    ........................
    ........................
    ........................
    ........................
    ........................
    ........................
    ........................
    .@@@@@@@@@@@@@@@@@@@@@..
    ....@@@@@@.........@@@..
    .....@@@@...........@@..
    .....@@@@...........@@..
    .....@@@@............@..
    .....@@@@............@..
    .....@@@@...............
    .....@@@@...............
    .....@@@@..........@....
    .....@@@@..........@....
    .....@@@@.........@@....
    .....@@@@........@@@....
    .....@@@@@@@@@@@@@@@....
    .....@@@@........@@@....
    .....@@@@.........@@....
    .....@@@@..........@....
    .....@@@@..........@....
    .....@@@@...............
    .....@@@@...............
    .....@@@@...............
    .....@@@@...............
    .....@@@@..............@
    .....@@@@.............@@
    .....@@@@............@@.
    .....@@@@...........@@@.
    ....@@@@@@........@@@@..
    .@@@@@@@@@@@@@@@@@@@@@..
    ........................
    ........................
    ........................
    ........................
    ........................
    ........................
    ........................
    ........................
    ........................

0x46:
u+0046:
    ......................
    ......................
    ......................
    ......................
    ......................
    ......................
    ......................
    .@@@@@@@@@@@@@@@@@@@@@
    ....@@@@@@.........@@@
    .....@@@@...........@@
    .....@@@@...........@@
    .....@@@@............@
    .....@@@@............@
    .....@@@@.............
    .....@@@@.............
    .....@@@@..........@..
    .....@@@@..........@..
    .....@@@@.........@@..
    .....@@@@........@@@..
    .....@@@@@@@@@@@@@@@..
    .....@@@@........@@@..
    .....@@@@.........@@..
    .....@@@@..........@..
    .....@@@@..........@..
    .....@@@@.............
    .....@@@@.............
    .....@@@@.............
    .....@@@@.............
    .....@@@@.............
    .....@@@@.............
    .....@@@@.............
    .....@@@@.............
    ....@@@@@@............
    .@@@@@@@@@@@@.........
    ......................
    ......................
    ......................
    ......................
    ......................
    ......................
    ......................
    ......................
    ......................

0x47:
u+0047:
    .............................
    .............................
    .............................
    .............................
    .............................
    .............................
    .............................
    ...........@@@@@@@@@@...@....
    ........@@@@@......@@@@@@....
    .......@@@@..........@@@@....
    .....@@@@.............@@@@...
    .....@@@@..............@@@...
    ....@@@@................@@...
    ...@@@@..................@...
    ...@@@@......................
    ...@@@@......................
    ..@@@@.......................
    ..@@@@.......................
    ..@@@@.......................
    ..@@@@............@@@@@@@@@@@
    ..@@@@...............@@@@@@..
    ..@@@@................@@@@...
    ..@@@@................@@@@...
    ..@@@@................@@@@...
    ..@@@@................@@@@...
    ...@@@@...............@@@@...
    ...@@@@...............@@@@...
    ...@@@@...............@@@@...
    ....@@@@..............@@@@...
    .....@@@@.............@@@@...
    .....@@@@.............@@@@...
    .......@@@@..........@@@@....
    ........@@@@@......@@@@@.....
    ...........@@@@@@@@@@@.......
    .............................
    .............................
    .............................
    .............................
    .............................
    .............................
    .............................
    .............................
    .............................

0x48:
u+0048:
    .............................
    .............................
    .............................
    .............................
    .............................
    .............................
    .............................
    .@@@@@@@@@@@@....@@@@@@@@@@@@
    ....@@@@@@..........@@@@@@...
    .....@@@@............@@@@....
    .....@@@@............@@@@....
    .....@@@@............@@@@....
    .....@@@@............@@@@....
    .....@@@@............@@@@....
    .....@@@@............@@@@....
    .....@@@@............@@@@....
    .....@@@@............@@@@....
    .....@@@@............@@@@....
    .....@@@@............@@@@....
    .....@@@@@@@@@@@@@@@@@@@@....
    .....@@@@............@@@@....
    .....@@@@............@@@@....
    .....@@@@............@@@@....
    .....@@@@............@@@@....
    .....@@@@............@@@@....
    .....@@@@............@@@@....
    .....@@@@............@@@@....
    .....@@@@............@@@@....
    .....@@@@............@@@@....
    .....@@@@............@@@@....
    .....@@@@............@@@@....
    .....@@@@............@@@@....
    ....@@@@@@..........@@@@@@...
    .@@@@@@@@@@@@....@@@@@@@@@@@@
    .............................
    .............................
    .............................
    .............................
    .............................
    .............................
    .............................
    .............................
    .............................

0x49:
u+0049:
    .............
    .............
    .............
    .............
    .............
    .............
    .............
    .@@@@@@@@@@@@
    ....@@@@@@...
    .....@@@@....
    .....@@@@....
    .....@@@@....
    .....@@@@....
    .....@@@@....
    .....@@@@....
    .....@@@@....
    .....@@@@....
    .....@@@@....
    .....@@@@....
    .....@@@@....
    .....@@@@....
    .....@@@@....
    .....@@@@....
    .....@@@@....
    .....@@@@....
    .....@@@@....
    .....@@@@....
    .....@@@@....
    .....@@@@....
    .....@@@@....
    .....@@@@....
    .....@@@@....
    ....@@@@@@...
    .@@@@@@@@@@@@
    .............
    .............
    .............
    .............
    .............
    .............
    .............
    .............
    .............

0x4a:
u+004a:
    .................
    .................
    .................
    .................
    .................
    .................
    .................
    .....@@@@@@@@@@@@
    ........@@@@@@...
    .........@@@@....
    .........@@@@....
    .........@@@@....
    .........@@@@....
    .........@@@@....
    .........@@@@....
    .........@@@@....
    .........@@@@....
    .........@@@@....
    .........@@@@....
    .........@@@@....
    .........@@@@....
    .........@@@@....
    .........@@@@....
    .........@@@@....
    .........@@@@....
    .........@@@@....
    .........@@@@....
    .........@@@@....
    .........@@@@....
    ..@@@....@@@@....
    .@@@@@...@@@.....
    .@@@@@...@@@.....
    ..@@@@..@@@......
    ...@@@@@@........
    .................
    .................
    .................
    .................
    .................
    .................
    .................
    .................
    .................

0x4b:
u+004b:
    .............................
    .............................
    .............................
    .............................
    .............................
    .............................
    .............................
    .@@@@@@@@@@@@....@@@@@@@@@@..
    ....@@@@@@.........@@@@@@....
    .....@@@@...........@@@......
    .....@@@@..........@@........
    .....@@@@.........@@.........
    .....@@@@........@@..........
    .....@@@@.......@@...........
    .....@@@@......@@............
    .....@@@@.....@@.............
    .....@@@@....@@..............
    .....@@@@...@@...............
    .....@@@@..@@................
    .....@@@@.@@@@...............
    .....@@@@@@@@@@..............
    .....@@@@.@@@@@@.............
    .....@@@@..@@@@@@............
    .....@@@@...@@@@@@...........
    .....@@@@....@@@@@@..........
    .....@@@@.....@@@@@@.........
    .....@@@@......@@@@@@........
    .....@@@@.......@@@@@@.......
    .....@@@@........@@@@@@......
    .....@@@@.........@@@@@@.....
    .....@@@@..........@@@@@@....
    .....@@@@...........@@@@@@...
    ....@@@@@@.........@@@@@@@@..
    .@@@@@@@@@@@@....@@@@@@@@@@@@
    .............................
    .............................
    .............................
    .............................
    .............................
    .............................
    .............................
    .............................
    .............................

0x4c:
u+004c:
    ........................
    ........................
    ........................
    ........................
    ........................
    ........................
    ........................
    .@@@@@@@@@@@@...........
    ....@@@@@@..............
    .....@@@@...............
    .....@@@@...............
    .....@@@@...............
    .....@@@@...............
    .....@@@@...............
    .....@@@@...............
    .....@@@@...............
    .....@@@@...............
    .....@@@@...............
    .....@@@@...............
    .....@@@@...............
    .....@@@@...............
    .....@@@@...............
    .....@@@@...............
    .....@@@@...............
    .....@@@@...............
    .....@@@@...............
    .....@@@@...............
    .....@@@@...............
    .....@@@@..............@
    .....@@@@.............@@
    .....@@@@............@@.
    .....@@@@...........@@@.
    ....@@@@@@........@@@@..
    .@@@@@@@@@@@@@@@@@@@@@..
    ........................
    ........................
    ........................
    ........................
    ........................
    ........................
    ........................
    ........................
    ........................

0x4d:
u+004d:
    ....................................
    ....................................
    ....................................
    ....................................
    ....................................
    ....................................
    ....................................
    .@@@@@@@@...................@@@@@@@@
    ....@@@@@@..................@@@@@...
    .....@@@@@.................@@@@@....
    .....@@@@@@................@@@@@....
    .....@@@@@@...............@@@@@@....
    .....@@@@@@@..............@@@@@@....
    .....@@@@@@@.............@@@@@@@....
    .....@@.@@@@@............@@.@@@@....
    .....@@.@@@@@...........@@@.@@@@....
    .....@@..@@@@@..........@@..@@@@....
    .....@@..@@@@@.........@@@..@@@@....
    .....@@...@@@@@........@@...@@@@....
    .....@@...@@@@@.......@@@...@@@@....
    .....@@....@@@@@......@@....@@@@....
    .....@@....@@@@@.....@@@....@@@@....
    .....@@.....@@@@@....@@.....@@@@....
    .....@@.....@@@@@...@@@.....@@@@....
    .....@@......@@@@@..@@......@@@@....
    .....@@......@@@@@.@@@......@@@@....
    .....@@.......@@@@@@@.......@@@@....
    .....@@.......@@@@@@@.......@@@@....
    .....@@........@@@@@@.......@@@@....
    .....@@........@@@@@........@@@@....
    .....@@.........@@@@........@@@@....
    .....@@.........@@@.........@@@@....
    ....@@@@.........@@........@@@@@@...
    .@@@@@@@@@@......@......@@@@@@@@@@@@
    ....................................
    ....................................
    ....................................
    ....................................
    ....................................
    ....................................
    ....................................
    ....................................
    ....................................

0x4e:
u+004e:
    .............................
    .............................
    .............................
    .............................
    .............................
    .............................
    .............................
    .@@@@@@@...........@@@@@@@@@@
    ...@@@@@@.............@@@@...
    ....@@@@@@.............@@....
    .....@@@@@@............@@....
    .....@@@@@@............@@....
    .....@@@@@@@...........@@....
    .....@@.@@@@@..........@@....
    .....@@..@@@@@.........@@....
    .....@@...@@@@@........@@....
    .....@@...@@@@@........@@....
    .....@@....@@@@@.......@@....
    .....@@.....@@@@@......@@....
    .....@@......@@@@@.....@@....
    .....@@......@@@@@@....@@....
    .....@@.......@@@@@....@@....
    .....@@........@@@@@...@@....
    .....@@.........@@@@@..@@....
    .....@@.........@@@@@@.@@....
    .....@@..........@@@@@.@@....
    .....@@...........@@@@@@@....
    .....@@............@@@@@@....
    .....@@.............@@@@@....
    .....@@.............@@@@@....
    .....@@..............@@@@....
    .....@@...............@@@....
    ....@@@@...............@@....
    .@@@@@@@@@@.............@....
    .............................
    .............................
    .............................
    .............................
    .............................
    .............................
    .............................
    .............................
    .............................

0x4f:
u+004f:
    .............................
    .............................
    .............................
    .............................
    .............................
    .............................
    .............................
    ...........@@@@@@@@..........
    ........@@@@@....@@@@@.......
    .......@@@@........@@@@......
    .....@@@@............@@@@....
    .....@@@@............@@@@....
    ....@@@@..............@@@@...
    ...@@@@................@@@@..
    ...@@@@................@@@@..
    ...@@@@................@@@@..
    ..@@@@..................@@@@.
    ..@@@@..................@@@@.
    ..@@@@..................@@@@.
    ..@@@@..................@@@@.
    ..@@@@..................@@@@.
    ..@@@@..................@@@@.
    ..@@@@..................@@@@.
    ..@@@@..................@@@@.
    ..@@@@..................@@@@.
    ...@@@@................@@@@..
    ...@@@@................@@@@..
    ...@@@@................@@@@..
    ....@@@@..............@@@@...
    .....@@@@............@@@@....
    .....@@@@............@@@@....
    .......@@@@........@@@@......
    ........@@@@@....@@@@@.......
    ...........@@@@@@@@..........
    .............................
    .............................
    .............................
    .............................
    .............................
    .............................
    .............................
    .............................
    .............................

0x50:
u+0050:
    .......................
    .......................
    .......................
    .......................
    .......................
    .......................
    .......................
    .@@@@@@@@@@@@@@@@......
    ....@@@@@......@@@@....
    .....@@@@........@@@@..
    .....@@@@........@@@@..
    .....@@@@.........@@@@.
    .....@@@@.........@@@@.
    .....@@@@.........@@@@.
    .....@@@@.........@@@@.
    .....@@@@.........@@@@.
    .....@@@@.........@@@@.
    .....@@@@........@@@@..
    .....@@@@........@@@@..
    .....@@@@......@@@@....
    .....@@@@@@@@@@@@......
    .....@@@@..............
    .....@@@@..............
    .....@@@@..............
    .....@@@@..............
    .....@@@@..............
    .....@@@@..............
    .....@@@@..............
    .....@@@@..............
    .....@@@@..............
    .....@@@@..............
    .....@@@@..............
    ....@@@@@@.............
    .@@@@@@@@@@@@@.........
    .......................
    .......................
    .......................
    .......................
    .......................
    .......................
    .......................
    .......................
    .......................

0x51:
u+0051:
    .............................
    .............................
    .............................
    .............................
    .............................
    .............................
    .............................
    ...........@@@@@@@@..........
    ........@@@@@....@@@@@.......
    .......@@@@........@@@@......
    .....@@@@............@@@@....
    .....@@@@............@@@@....
    ....@@@@..............@@@@...
    ...@@@@................@@@@..
    ...@@@@................@@@@..
    ...@@@@................@@@@..
    ..@@@@..................@@@@.
    ..@@@@..................@@@@.
    ..@@@@..................@@@@.
    ..@@@@..................@@@@.
    ..@@@@..................@@@@.
    ..@@@@..................@@@@.
    ..@@@@..................@@@@.
    ..@@@@..................@@@@.
    ..@@@@..................@@@@.
    ...@@@@................@@@@..
    ...@@@@................@@@@..
    ...@@@@................@@@@..
    ....@@@@..............@@@@...
    .....@@@@............@@@@....
    .....@@@@............@@@@....
    .......@@@@........@@@@......
    ........@@@@@....@@@@@.......
    ...........@@@@@@@@..........
    ............@@@@@@@@.........
    ..............@@@@@@@@.......
    .................@@@@@@@@....
    .....................@@@@@@@.
    .............................
    .............................
    .............................
    .............................
    .............................

0x52:
u+0052:
    ..........................
    ..........................
    ..........................
    ..........................
    ..........................
    ..........................
    ..........................
    .@@@@@@@@@@@@@@@@@@.......
    ....@@@@@.......@@@@@.....
    .....@@@@.........@@@@....
    .....@@@@.........@@@@....
    .....@@@@..........@@@@...
    .....@@@@..........@@@@...
    .....@@@@..........@@@@...
    .....@@@@..........@@@@...
    .....@@@@..........@@@@...
    .....@@@@..........@@@@...
    .....@@@@.........@@@@....
    .....@@@@.........@@@@....
    .....@@@@.......@@@@@.....
    .....@@@@@@@@@@@@@@.......
    .....@@@@..@@@@@..........
    .....@@@@...@@@@@.........
    .....@@@@....@@@@@........
    .....@@@@.....@@@@@.......
    .....@@@@......@@@@.......
    .....@@@@......@@@@@......
    .....@@@@.......@@@@@.....
    .....@@@@........@@@@@....
    .....@@@@.........@@@@....
    .....@@@@..........@@@@...
    .....@@@@..........@@@@@..
    ....@@@@@@..........@@@@@.
    .@@@@@@@@@@@@........@@@@@
    ..........................
    ..........................
    ..........................
    ..........................
    ..........................
    ..........................
    ..........................
    ..........................
    ..........................

0x53:
u+0053:
    ......................
    ......................
    ......................
    ......................
    ......................
    ......................
    ......................
    .......@@@@@@@@...@...
    .....@@@@....@@@@@@...
    ....@@@........@@@@...
    ....@@@.........@@@...
    ...@@@...........@@@..
    ...@@@............@@..
    ...@@@.............@..
    ...@@@@...............
    ...@@@@@..............
    ....@@@@@@............
    ....@@@@@@@@..........
    .....@@@@@@@@@........
    ......@@@@@@@@@.......
    ........@@@@@@@@@.....
    ..........@@@@@@@@....
    ...........@@@@@@@@...
    .............@@@@@@@..
    ..............@@@@@@..
    ................@@@@@.
    ..@.............@@@@@.
    ..@@.............@@@@.
    ..@@.............@@@@.
    ..@@@............@@@..
    ...@@@..........@@@@..
    ...@@@@........@@@@...
    ...@@@@@@....@@@@.....
    ...@....@@@@@@@.......
    ......................
    ......................
    ......................
    ......................
    ......................
    ......................
    ......................
    ......................
    ......................

0x54:
u+0054:
    .........................
    .........................
    .........................
    .........................
    .........................
    .........................
    .........................
    .@@@@@@@@@@@@@@@@@@@@@@@@
    .@@@.......@@@@.......@@@
    .@@........@@@@........@@
    .@@........@@@@........@@
    .@.........@@@@.........@
    .@.........@@@@.........@
    ...........@@@@..........
    ...........@@@@..........
    ...........@@@@..........
    ...........@@@@..........
    ...........@@@@..........
    ...........@@@@..........
    ...........@@@@..........
    ...........@@@@..........
    ...........@@@@..........
    ...........@@@@..........
    ...........@@@@..........
    ...........@@@@..........
    ...........@@@@..........
    ...........@@@@..........
    ...........@@@@..........
    ...........@@@@..........
    ...........@@@@..........
    ...........@@@@..........
    ...........@@@@..........
    ..........@@@@@@.........
    .......@@@@@@@@@@@@......
    .........................
    .........................
    .........................
    .........................
    .........................
    .........................
    .........................
    .........................
    .........................

0x55:
u+0055:
    .............................
    .............................
    .............................
    .............................
    .............................
    .............................
    .............................
    .@@@@@@@@@@@@......@@@@@@@@@@
    ....@@@@@@............@@@@...
    .....@@@@..............@@....
    .....@@@@..............@@....
    .....@@@@..............@@....
    .....@@@@..............@@....
    .....@@@@..............@@....
    .....@@@@..............@@....
    .....@@@@..............@@....
    .....@@@@..............@@....
    .....@@@@..............@@....
    .....@@@@..............@@....
    .....@@@@..............@@....
    .....@@@@..............@@....
    .....@@@@..............@@....
    .....@@@@..............@@....
    .....@@@@..............@@....
    .....@@@@..............@@....
    .....@@@@..............@@....
    .....@@@@..............@@....
    .....@@@@..............@@....
    ......@@@@............@@.....
    ......@@@@............@@.....
    .......@@@@..........@@......
    .......@@@@@@......@@@@......
    .........@@@@@@@@@@@@........
    ...........@@@@@@@@..........
    .............................
    .............................
    .............................
    .............................
    .............................
    .............................
    .............................
    .............................
    .............................

0x56:
u+0056:
    ..............................
    ..............................
    ..............................
    ..............................
    ..............................
    ..............................
    ..............................
    .@@@@@@@@@@@@........@@@@@@@@@
    ...@@@@@@@.............@@@@@..
    ....@@@@@...............@@@...
    ....@@@@@...............@@....
    .....@@@@@..............@@....
    .....@@@@@..............@.....
    ......@@@@.............@@.....
    ......@@@@@............@......
    .......@@@@...........@@......
    .......@@@@@..........@.......
    .......@@@@@..........@.......
    ........@@@@.........@@.......
    ........@@@@@........@........
    .........@@@@.......@@........
    .........@@@@@......@.........
    ..........@@@@......@.........
    ..........@@@@.....@@.........
    ..........@@@@@....@..........
    ...........@@@@...@@..........
    ...........@@@@@..@...........
    ............@@@@.@@...........
    ............@@@@@@............
    .............@@@@@............
    .............@@@@@............
    ..............@@@.............
    ..............@@@.............
    ...............@..............
    ..............................
    ..............................
    ..............................
    ..............................
    ..............................
    ..............................
    ..............................
    ..............................
    ..............................

0x57:
u+0057:
    .....................................
    .....................................
    .....................................
    .....................................
    .....................................
    .....................................
    .....................................
    .@@@@@@@@@@...@@@@@@@@@@......@@@@@@@
    ...@@@@@........@@@@@...........@@@@.
    ....@@@@.........@@@@............@@..
    ....@@@@@........@@@@@...........@...
    .....@@@@.........@@@@...........@...
    .....@@@@.........@@@@..........@@...
    .....@@@@@........@@@@@.........@....
    ......@@@@.........@@@@.........@....
    ......@@@@.........@@@@........@@....
    ......@@@@@........@@@@@.......@.....
    .......@@@@.......@@@@@@.......@.....
    .......@@@@.......@@@@@@......@@.....
    ........@@@@......@..@@@@.....@......
    ........@@@@.....@@..@@@@.....@......
    ........@@@@.....@...@@@@.....@......
    .........@@@@....@....@@@@...@@......
    .........@@@@...@@....@@@@...@.......
    .........@@@@...@.....@@@@...@.......
    ..........@@@@.@@......@@@@.@@.......
    ..........@@@@.@.......@@@@.@........
    ...........@@@@@........@@@@@........
    ...........@@@@@........@@@@@........
    ...........@@@@.........@@@@.........
    ............@@@..........@@@.........
    ............@@@..........@@@.........
    ............@@...........@@..........
    .............@............@..........
    .....................................
    .....................................
    .....................................
    .....................................
    .....................................
    .....................................
    .....................................
    .....................................
    .....................................

0x58:
u+0058:
    .............................
    .............................
    .............................
    .............................
    .............................
    .............................
    .............................
    .@@@@@@@@@@@@......@@@@@@@@@.
    ....@@@@@............@@@@@...
    .....@@@@@............@@.....
    ......@@@@...........@@......
    ......@@@@@.........@@.......
    .......@@@@@.......@@........
    ........@@@@.......@@........
    ........@@@@@.....@@.........
    .........@@@@@...@@..........
    ..........@@@@..@@...........
    ..........@@@@@.@@...........
    ...........@@@@@@............
    ............@@@@.............
    ............@@@@@............
    ............@@@@@@...........
    ...........@@.@@@@...........
    ..........@@...@@@@..........
    .........@@....@@@@@.........
    .........@@.....@@@@@........
    ........@@.......@@@@........
    .......@@........@@@@@.......
    ......@@..........@@@@@......
    ......@@...........@@@@......
    .....@@............@@@@@.....
    ....@@..............@@@@@....
    ..@@@@@.............@@@@@@...
    @@@@@@@@@........@@@@@@@@@@@@
    .............................
    .............................
    .............................
    .............................
    .............................
    .............................
    .............................
    .............................
    .............................

0x59:
u+0059:
    .............................
    .............................
    .............................
    .............................
    .............................
    .............................
    .............................
    .@@@@@@@@@@@.........@@@@@@@@
    ....@@@@@..............@@@@..
    .....@@@@@..............@@...
    ......@@@@.............@@....
    .......@@@@............@.....
    .......@@@@@..........@@.....
    ........@@@@@........@@......
    .........@@@@........@.......
    ..........@@@@......@@.......
    ...........@@@@....@@........
    ...........@@@@@...@.........
    ............@@@@..@@.........
    .............@@@@@@..........
    .............@@@@@@..........
    ..............@@@@...........
    ..............@@@@...........
    ..............@@@@...........
    ..............@@@@...........
    ..............@@@@...........
    ..............@@@@...........
    ..............@@@@...........
    ..............@@@@...........
    ..............@@@@...........
    ..............@@@@...........
    ..............@@@@...........
    .............@@@@@@..........
    ..........@@@@@@@@@@@@.......
    .............................
    .............................
    .............................
    .............................
    .............................
    .............................
    .............................
    .............................
    .............................

0x5a:
u+005a:
    ........................
    ........................
    ........................
    ........................
    ........................
    ........................
    ........................
    ...@@@@@@@@@@@@@@@@@@@@.
    ...@@@...........@@@@@..
    ...@@............@@@@...
    ...@@...........@@@@@...
    ...@...........@@@@@....
    ...@...........@@@@.....
    ..............@@@@......
    .............@@@@@......
    .............@@@@.......
    ............@@@@........
    ............@@@@........
    ...........@@@@.........
    ..........@@@@@.........
    ..........@@@@..........
    .........@@@@...........
    ........@@@@@...........
    ........@@@@............
    .......@@@@.............
    .......@@@@.............
    ......@@@@..............
    .....@@@@@..............
    .....@@@@..............@
    ....@@@@..............@@
    ....@@@@.............@@.
    ...@@@@.............@@@.
    ..@@@@@...........@@@@..
    .@@@@@@@@@@@@@@@@@@@@@..
    ........................
    ........................
    ........................
    ........................
    ........................
    ........................
    ........................
    ........................
    ........................

0x5b:
u+005b:
    .............
    .............
    .............
    .............
    .............
    .............
    .............
    ...@@@@@@@@..
    ...@@@@......
    ...@@@.......
    ...@@@.......
    ...@@@.......
    ...@@@.......
    ...@@@.......
    ...@@@.......
    ...@@@.......
    ...@@@.......
    ...@@@.......
    ...@@@.......
    ...@@@.......
    ...@@@.......
    ...@@@.......
    ...@@@.......
    ...@@@.......
    ...@@@.......
    ...@@@.......
    ...@@@.......
    ...@@@.......
    ...@@@.......
    ...@@@.......
    ...@@@.......
    ...@@@.......
    ...@@@.......
    ...@@@.......
    ...@@@.......
    ...@@@.......
    ...@@@.......
    ...@@@.......
    ...@@@.......
    ...@@@.......
    ...@@@.......
    ...@@@@......
    ...@@@@@@@@..

0x5c:
u+005c:
    ...........
    ...........
    ...........
    ...........
    ...........
    ...........
    ...........
    @@.........
    @@.........
    @@.........
    .@@........
    .@@........
    .@@........
    ..@@.......
    ..@@.......
    ..@@.......
    ...@@......
    ...@@......
    ...@@......
    ....@@.....
    ....@@.....
    ....@@.....
    .....@@....
    .....@@....
    .....@@....
    ......@@...
    ......@@...
    ......@@...
    .......@@..
    .......@@..
    .......@@..
    ........@@.
    ........@@.
    ........@@.
    .........@@
    .........@@
    .........@@
    ...........
    ...........
    ...........
    ...........
    ...........
    ...........

0x5d:
u+005d:
    .............
    .............
    .............
    .............
    .............
    .............
    .............
    ..@@@@@@@@...
    ......@@@@...
    .......@@@...
    .......@@@...
    .......@@@...
    .......@@@...
    .......@@@...
    .......@@@...
    .......@@@...
    .......@@@...
    .......@@@...
    .......@@@...
    .......@@@...
    .......@@@...
    .......@@@...
    .......@@@...
    .......@@@...
    .......@@@...
    .......@@@...
    .......@@@...
    .......@@@...
    .......@@@...
    .......@@@...
    .......@@@...
    .......@@@...
    .......@@@...
    .......@@@...
    .......@@@...
    .......@@@...
    .......@@@...
    .......@@@...
    .......@@@...
    .......@@@...
    .......@@@...
    ......@@@@...
    ..@@@@@@@@...

0x5e:
u+005e:
    .............
    .............
    .............
    .............
    .............
    .............
    .............
    .....@@@.....
    ....@@@@@....
    ...@@@.@@@...
    ..@@@...@@@..
    .@@@.....@@@.
    .............
    .............
    .............
    .............
    .............
    .............
    .............
    .............
    .............
    .............
    .............
    .............
    .............
    .............
    .............
    .............
    .............
    .............
    .............
    .............
    .............
    .............
    .............
    .............
    .............
    .............
    .............
    .............
    .............
    .............
    .............

0x5f:
u+005f:
    ....................
    ....................
    ....................
    ....................
    ....................
    ....................
    ....................
    ....................
    ....................
    ....................
    ....................
    ....................
    ....................
    ....................
    ....................
    ....................
    ....................
    ....................
    ....................
    ....................
    ....................
    ....................
    ....................
    ....................
    ....................
    ....................
    ....................
    ....................
    ....................
    ....................
    ....................
    ....................
    ....................
    ....................
    ....................
    ....................
    ....................
    @@@@@@@@@@@@@@@@@@@@
    @@@@@@@@@@@@@@@@@@@@
    @@@@@@@@@@@@@@@@@@@@
    ....................
    ....................
    ....................

0x60:
u+0060:
    .............
    .............
    .............
    .............
    .............
    .............
    .............
    ....@@@......
    ....@@@@.....
    .....@@@@....
    .......@@@...
    .........@@..
    .............
    .............
    .............
    .............
    .............
    .............
    .............
    .............
    .............
    .............
    .............
    .............
    .............
    .............
    .............
    .............
    .............
    .............
    .............
    .............
    .............
    .............
    .............
    .............
    .............
    .............
    .............
    .............
    .............
    .............
    .............

0x61:
u+0061:
    ..................
    ..................
    ..................
    ..................
    ..................
    ..................
    ..................
    ..................
    ..................
    ..................
    ..................
    ..................
    ..................
    ..................
    ..................
    .....@@@@@@@......
    ...@@@@...@@@@....
    ...@@.......@@@...
    ..@@@.......@@@...
    ..@@@.......@@@...
    ..@@........@@@...
    ............@@@...
    ..........@@@@@...
    .......@@@@.@@@...
    .....@@@....@@@...
    ...@@@......@@@...
    ..@@@.......@@@...
    .@@@........@@@...
    .@@@........@@@...
    .@@@........@@@...
    .@@@@......@@@@...
    ..@@@@....@@@@@.@.
    ..@@@@@@@@@.@@@@@.
    ....@@@@@....@@@..
    ..................
    ..................
    ..................
    ..................
    ..................
    ..................
    ..................
    ..................
    ..................

0x62:
u+0062:
    ....................
    ....................
    ....................
    ....................
    ....................
    ....................
    .....@..............
    ...@@@..............
    .@@@@@..............
    ...@@@..............
    ...@@@..............
    ...@@@..............
    ...@@@..............
    ...@@@..............
    ...@@@..............
    ...@@@....@@@@......
    ...@@@..@@@@@@@@....
    ...@@@.@@@..@@@@@...
    ...@@@@@......@@@@..
    ...@@@@.......@@@@..
    ...@@@.........@@@@.
    ...@@@.........@@@@.
    ...@@@.........@@@@.
    ...@@@..........@@@.
    ...@@@..........@@@.
    ...@@@..........@@@.
    ...@@@..........@@@.
    ...@@@..........@@..
    ...@@@.........@@@..
    ...@@@.........@@...
    ...@@@........@@@...
    ...@@@@.......@@....
    ....@@@@@...@@@.....
    .......@@@@@@.......
    ....................
    ....................
    ....................
    ....................
    ....................
    ....................
    ....................
    ....................
    ....................

0x63:
u+0063:
    ...................
    ...................
    ...................
    ...................
    ...................
    ...................
    ...................
    ...................
    ...................
    ...................
    ...................
    ...................
    ...................
    ...................
    ...................
    .......@@@@@@@.....
    .....@@@@..@@@@@...
    ....@@@......@@@@..
    ...@@@.......@@@@..
    ..@@@........@@@@..
    ..@@@.........@@...
    .@@@...............
    .@@@...............
    .@@@...............
    .@@@...............
    .@@@...............
    .@@@@..............
    .@@@@............@.
    ..@@@@..........@..
    ..@@@@@........@@..
    ...@@@@@.....@@@...
    ...@@@@@@@@@@@@....
    .....@@@@@@@@@.....
    .......@@@@@.......
    ...................
    ...................
    ...................
    ...................
    ...................
    ...................
    ...................
    ...................
    ...................

0x64:
u+0064:
    ....................
    ....................
    ....................
    ....................
    ....................
    ....................
    ................@...
    ..............@@@...
    ............@@@@@...
    ..............@@@...
    ..............@@@...
    ..............@@@...
    ..............@@@...
    ..............@@@...
    ..............@@@...
    .......@@@@@..@@@...
    .....@@@...@@@@@@...
    ....@@.......@@@@...
    ...@@@........@@@...
    ...@@.........@@@...
    ..@@@.........@@@...
    ..@@..........@@@...
    .@@@..........@@@...
    .@@@..........@@@...
    .@@@..........@@@...
    .@@@..........@@@...
    .@@@@.........@@@...
    .@@@@.........@@@...
    .@@@@.........@@@...
    ..@@@@.......@@@@...
    ..@@@@......@@@@@...
    ...@@@@@..@@@.@@@@@.
    ....@@@@@@@@..@@@@..
    ......@@@@....@@....
    ....................
    ....................
    ....................
    ....................
    ....................
    ....................
    ....................
    ....................
    ....................

0x65:
u+0065:
    ...................
    ...................
    ...................
    ...................
    ...................
    ...................
    ...................
    ...................
    ...................
    ...................
    ...................
    ...................
    ...................
    ...................
    ...................
    .......@@@@@@......
    .....@@@@..@@@@....
    ....@@@.....@@@@...
    ...@@@.......@@@...
    ..@@@........@@@@..
    ..@@@........@@@@..
    .@@@@@@@@@@@@@@@@..
    .@@@...............
    .@@@...............
    .@@@...............
    .@@@...............
    .@@@@..............
    .@@@@............@.
    ..@@@@..........@..
    ..@@@@@........@@..
    ...@@@@@.....@@@...
    ...@@@@@@@@@@@@....
    .....@@@@@@@@@.....
    .......@@@@@.......
    ...................
    ...................
    ...................
    ...................
    ...................
    ...................
    ...................
    ...................
    ...................

0x66:
u+0066:
    ...........
    ...........
    ...........
    ...........
    ...........
    ...........
    .......@@@.
    .....@@.@@@
    ....@@..@@@
    ....@@..@@@
    ...@@@...@.
    ...@@@.....
    ...@@@.....
    ...@@@.....
    ...@@@.....
    @@@@@@@@@@.
    ...@@@.....
    ...@@@.....
    ...@@@.....
    ...@@@.....
    ...@@@.....
    ...@@@.....
    ...@@@.....
    ...@@@.....
    ...@@@.....
    ...@@@.....
    ...@@@.....
    ...@@@.....
    ...@@@.....
    ...@@@.....
    ...@@@.....
    ...@@@.....
    ..@@@@@....
    .@@@@@@@...
    ...........
    ...........
    ...........
    ...........
    ...........
    ...........
    ...........
    ...........
    ...........

0x67:
u+0067:
    ....................
    ....................
    ....................
    ....................
    ....................
    ....................
    ....................
    ....................
    ....................
    ....................
    ....................
    ....................
    ....................
    ....................
    ....................
    .......@@@@@........
    .....@@@..@@@@@@@@@.
    ....@@@.....@@@@@@@.
    ....@@......@@@.....
    ...@@@.......@@@....
    ...@@@.......@@@....
    ...@@@.......@@@....
    ...@@@.......@@@....
    ...@@@.......@@@....
    ....@@@......@@.....
    ....@@@.....@@@.....
    .....@@@@..@@@......
    ......@@@@@@........
    .....@..............
    ....@@..............
    ...@@@..............
    ...@@@@@@@@@@@......
    ...@@@@@@@@@@@@@@...
    ....@@@@@@@@@@@@@@..
    .....@........@@@@@.
    ...@@...........@@@.
    ..@@.............@@.
    .@@@............@@@.
    .@@@@..........@@@..
    .@@@@@@......@@@@...
    ..@@@@@@@@@@@@@.....
    ....@@@@@@@@........
    ....................

0x68:
u+0068:
    ....................
    ....................
    ....................
    ....................
    ....................
    ....................
    .....@..............
    ...@@@..............
    .@@@@@..............
    ...@@@..............
    ...@@@..............
    ...@@@..............
    ...@@@..............
    ...@@@..............
    ...@@@..............
    ...@@@....@@@@......
    ...@@@..@@@@@@@@....
    ...@@@.@@@.@@@@@....
    ...@@@@@.....@@@@...
    ...@@@@......@@@@...
    ...@@@........@@@...
    ...@@@........@@@...
    ...@@@........@@@...
    ...@@@........@@@...
    ...@@@........@@@...
    ...@@@........@@@...
    ...@@@........@@@...
    ...@@@........@@@...
    ...@@@........@@@...
    ...@@@........@@@...
    ...@@@........@@@...
    ...@@@........@@@...
    ..@@@@@......@@@@@..
    .@@@@@@@....@@@@@@@.
    ....................
    ....................
    ....................
    ....................
    ....................
    ....................
    ....................
    ....................
    ....................

0x69:
u+0069:
    .........
    .........
    .........
    .........
    .........
    .........
    ...@@....
    ..@@@@...
    ..@@@@...
    ..@@@@...
    ...@@....
    .........
    .........
    .........
    .........
    .....@...
    ...@@@...
    .@@@@@...
    ...@@@...
    ...@@@...
    ...@@@...
    ...@@@...
    ...@@@...
    ...@@@...
    ...@@@...
    ...@@@...
    ...@@@...
    ...@@@...
    ...@@@...
    ...@@@...
    ...@@@...
    ...@@@...
    ..@@@@@..
    .@@@@@@@.
    .........
    .........
    .........
    .........
    .........
    .........
    .........
    .........
    .........

0x6a:
u+006a:
    ..........
    ..........
    ..........
    ..........
    ..........
    ..........
    ....@@....
    ...@@@@...
    ...@@@@...
    ...@@@@...
    ....@@....
    ..........
    ..........
    ..........
    ..........
    ......@...
    ....@@@...
    ..@@@@@...
    ....@@@...
    ....@@@...
    ....@@@...
    ....@@@...
    ....@@@...
    ....@@@...
    ....@@@...
    ....@@@...
    ....@@@...
    ....@@@...
    ....@@@...
    ....@@@...
    ....@@@...
    ....@@@...
    ....@@@...
    ....@@@...
    ....@@@...
    ....@@@...
    ....@@@...
    ....@@@...
    .@@.@@....
    @@@.@@....
    @@@@@.....
    .@@@......
    ..........

0x6b:
u+006b:
    ....................
    ....................
    ....................
    ....................
    ....................
    ....................
    .....@..............
    ...@@@..............
    .@@@@@..............
    ...@@@..............
    ...@@@..............
    ...@@@..............
    ...@@@..............
    ...@@@..............
    ...@@@..............
    ...@@@...@@@@@@@@@@.
    ...@@@......@@@@....
    ...@@@......@@......
    ...@@@.....@@.......
    ...@@@....@@........
    ...@@@...@@.........
    ...@@@..@@..........
    ...@@@.@@...........
    ...@@@@@@...........
    ...@@@@@@@..........
    ...@@@.@@@@.........
    ...@@@..@@@@........
    ...@@@...@@@@.......
    ...@@@....@@@@......
    ...@@@.....@@@@.....
    ...@@@......@@@@....
    ...@@@.......@@@@...
    ..@@@@@.....@@@@@@..
    .@@@@@@@..@@@@@@@@@@
    ....................
    ....................
    ....................
    ....................
    ....................
    ....................
    ....................
    ....................
    ....................

0x6c:
u+006c:
    .........
    .........
    .........
    .........
    .........
    .........
    .....@...
    ...@@@...
    .@@@@@...
    ...@@@...
    ...@@@...
    ...@@@...
    ...@@@...
    ...@@@...
    ...@@@...
    ...@@@...
    ...@@@...
    ...@@@...
    ...@@@...
    ...@@@...
    ...@@@...
    ...@@@...
    ...@@@...
    ...@@@...
    ...@@@...
    ...@@@...
    ...@@@...
    ...@@@...
    ...@@@...
    ...@@@...
    ...@@@...
    ...@@@...
    ..@@@@@..
    .@@@@@@@.
    .........
    .........
    .........
    .........
    .........
    .........
    .........
    .........
    .........

0x6d:
u+006d:
    ...............................
    ...............................
    ...............................
    ...............................
    ...............................
    ...............................
    ...............................
    ...............................
    ...............................
    ...............................
    ...............................
    ...............................
    ...............................
    ...............................
    ...............................
    .....@....@@@@.......@@@@......
    ...@@@..@@@@@@@@...@@@@@@@@....
    .@@@@@.@@@.@@@@@..@@@.@@@@@....
    ...@@@@@.....@@@@@@.....@@@@...
    ...@@@@......@@@@@......@@@@...
    ...@@@........@@@........@@@...
    ...@@@........@@@........@@@...
    ...@@@........@@@........@@@...
    ...@@@........@@@........@@@...
    ...@@@........@@@........@@@...
    ...@@@........@@@........@@@...
    ...@@@........@@@........@@@...
    ...@@@........@@@........@@@...
    ...@@@........@@@........@@@...
    ...@@@........@@@........@@@...
    ...@@@........@@@........@@@...
    ...@@@........@@@........@@@...
    ..@@@@@......@@@@@......@@@@@..
    .@@@@@@@....@@@@@@@....@@@@@@@.
    ...............................
    ...............................
    ...............................
    ...............................
    ...............................
    ...............................
    ...............................
    ...............................
    ...............................

0x6e:
u+006e:
    ....................
    ....................
    ....................
    ....................
    ....................
    ....................
    ....................
    ....................
    ....................
    ....................
    ....................
    ....................
    ....................
    ....................
    ....................
    .....@....@@@@......
    ...@@@..@@@@@@@@....
    .@@@@@.@@@.@@@@@....
    ...@@@@@.....@@@@...
    ...@@@@......@@@@...
    ...@@@........@@@...
    ...@@@........@@@...
    ...@@@........@@@...
    ...@@@........@@@...
    ...@@@........@@@...
    ...@@@........@@@...
    ...@@@........@@@...
    ...@@@........@@@...
    ...@@@........@@@...
    ...@@@........@@@...
    ...@@@........@@@...
    ...@@@........@@@...
    ..@@@@@......@@@@@..
    .@@@@@@@....@@@@@@@.
    ....................
    ....................
    ....................
    ....................
    ....................
    ....................
    ....................
    ....................
    ....................

0x6f:
u+006f:
    ....................
    ....................
    ....................
    ....................
    ....................
    ....................
    ....................
    ....................
    ....................
    ....................
    ....................
    ....................
    ....................
    ....................
    ....................
    .......@@@@@@@......
    .....@@@...@@@@@....
    ...@@@.......@@@@...
    ...@@.........@@@@..
    ..@@@.........@@@@..
    ..@@...........@@@@.
    .@@@...........@@@@.
    .@@@...........@@@@.
    .@@@............@@@.
    .@@@............@@@.
    .@@@............@@@.
    .@@@@...........@@@.
    .@@@@...........@@@.
    .@@@@...........@@..
    ..@@@@.........@@@..
    ..@@@@.........@@...
    ...@@@@.......@@@...
    ....@@@@@...@@@.....
    ......@@@@@@@.......
    ....................
    ....................
    ....................
    ....................
    ....................
    ....................
    ....................
    ....................
    ....................

0x70:
u+0070:
    ....................
    ....................
    ....................
    ....................
    ....................
    ....................
    ....................
    ....................
    ....................
    ....................
    ....................
    ....................
    ....................
    ....................
    ....................
    .....@....@@@@......
    ...@@@..@@@@@@@@....
    .@@@@@.@@@..@@@@@...
    ...@@@@@......@@@@..
    ...@@@@.......@@@@..
    ...@@@.........@@@@.
    ...@@@.........@@@@.
    ...@@@.........@@@@.
    ...@@@..........@@@.
    ...@@@..........@@@.
    ...@@@..........@@@.
    ...@@@..........@@@.
    ...@@@..........@@..
    ...@@@.........@@@..
    ...@@@.........@@...
    ...@@@........@@@...
    ...@@@@.......@@....
    ...@@@@@@...@@@.....
    ...@@@..@@@@@.......
    ...@@@..............
    ...@@@..............
    ...@@@..............
    ...@@@..............
    ...@@@..............
    ...@@@..............
    ..@@@@@.............
    .@@@@@@@............
    ....................

0x71:
u+0071:
    ....................
    ....................
    ....................
    ....................
    ....................
    ....................
    ....................
    ....................
    ....................
    ....................
    ....................
    ....................
    ....................
    ....................
    ....................
    .......@@@@@....@...
    .....@@@...@@@@@@...
    ....@@.......@@@@...
    ...@@@........@@@...
    ...@@.........@@@...
    ..@@@.........@@@...
    ..@@..........@@@...
    .@@@..........@@@...
    .@@@..........@@@...
    .@@@..........@@@...
    .@@@..........@@@...
    .@@@@.........@@@...
    .@@@@.........@@@...
    .@@@@.........@@@...
    ..@@@@.......@@@@...
    ..@@@@......@@@@@...
    ...@@@@@..@@@.@@@...
    ....@@@@@@@@..@@@...
    ......@@@@....@@@...
    ..............@@@...
    ..............@@@...
    ..............@@@...
    ..............@@@...
    ..............@@@...
    ..............@@@...
    .............@@@@@..
    ............@@@@@@@.
    ....................

0x72:
u+0072:
    .............
    .............
    .............
    .............
    .............
    .............
    .............
    .............
    .............
    .............
    .............
    .............
    .............
    .............
    .............
    .....@...@@@.
    ...@@@..@@@@@
    .@@@@@.@@@@@@
    ...@@@@@..@@.
    ...@@@@......
    ...@@@.......
    ...@@@.......
    ...@@@.......
    ...@@@.......
    ...@@@.......
    ...@@@.......
    ...@@@.......
    ...@@@.......
    ...@@@.......
    ...@@@.......
    ...@@@.......
    ...@@@.......
    ..@@@@@......
    .@@@@@@@.....
    .............
    .............
    .............
    .............
    .............
    .............
    .............
    .............
    .............

0x73:
u+0073:
    ................
    ................
    ................
    ................
    ................
    ................
    ................
    ................
    ................
    ................
    ................
    ................
    ................
    ................
    ................
    .....@@@@@..@...
    ...@@@@..@@@@...
    ..@@@......@@...
    .@@@........@@..
    .@@@........@@..
    .@@@@........@..
    .@@@@@@.........
    ..@@@@@@@.......
    ...@@@@@@@......
    ....@@@@@@@@....
    ......@@@@@@@...
    ........@@@@@@..
    .@........@@@@@.
    .@.........@@@@.
    .@@.........@@@.
    .@@.........@@@.
    .@@@.......@@@..
    .@@@@@...@@@@...
    .@...@@@@@@.....
    ................
    ................
    ................
    ................
    ................
    ................
    ................
    ................
    ................

0x74:
u+0074:
    ...........
    ...........
    ...........
    ...........
    ...........
    ...........
    ...........
    ...........
    ...........
    ......@....
    ......@....
    .....@@....
    .....@@....
    ....@@@....
    ...@@@@....
    .@@@@@@@@@.
    ....@@@....
    ....@@@....
    ....@@@....
    ....@@@....
    ....@@@....
    ....@@@....
    ....@@@....
    ....@@@....
    ....@@@....
    ....@@@....
    ....@@@....
    ....@@@....
    ....@@@....
    ....@@@....
    ....@@@....
    ....@@@..@@
    .....@@@@@.
    ......@@@..
    ...........
    ...........
    ...........
    ...........
    ...........
    ...........
    ...........
    ...........
    ...........

0x75:
u+0075:
    ....................
    ....................
    ....................
    ....................
    ....................
    ....................
    ....................
    ....................
    ....................
    ....................
    ....................
    ....................
    ....................
    ....................
    ....................
    .@@@@@......@@@@@...
    ..@@@@.......@@@@...
    ...@@@........@@@...
    ...@@@........@@@...
    ...@@@........@@@...
    ...@@@........@@@...
    ...@@@........@@@...
    ...@@@........@@@...
    ...@@@........@@@...
    ...@@@........@@@...
    ...@@@........@@@...
    ...@@@........@@@...
    ...@@@........@@@...
    ...@@@........@@@...
    ...@@@@......@@@@...
    ...@@@@.....@@@@@...
    ....@@@@@.@@@.@@@@@.
    ....@@@@@@@@..@@@...
    ......@@@@....@.....
    ....................
    ....................
    ....................
    ....................
    ....................
    ....................
    ....................
    ....................
    ....................

0x76:
u+0076:
    ...................
    ...................
    ...................
    ...................
    ...................
    ...................
    ...................
    ...................
    ...................
    ...................
    ...................
    ...................
    ...................
    ...................
    ...................
    @@@@@@........@@@@@
    .@@@@..........@@@.
    ..@@@...........@..
    ..@@@@.........@@..
    ...@@@.........@...
    ...@@@@.......@@...
    ....@@@.......@....
    ....@@@.......@....
    ....@@@@.....@@....
    .....@@@.....@.....
    .....@@@@...@@.....
    ......@@@...@......
    ......@@@@.@@......
    .......@@@.@.......
    .......@@@@@.......
    ........@@@@.......
    ........@@@........
    .........@@........
    .........@.........
    ...................
    ...................
    ...................
    ...................
    ...................
    ...................
    ...................
    ...................
    ...................

0x77:
u+0077:
    ............................
    ............................
    ............................
    ............................
    ............................
    ............................
    ............................
    ............................
    ............................
    ............................
    ............................
    ............................
    ............................
    ............................
    ............................
    @@@@@@@...@@@@@@@@...@@@@@@@
    .@@@@.......@@@@.......@@@..
    ..@@@........@@@........@...
    ..@@@@.......@@@@.......@...
    ...@@@......@@@@@......@@...
    ...@@@......@.@@@......@....
    ...@@@@.....@..@@@.....@....
    ....@@@.....@..@@@.....@....
    ....@@@....@@..@@@....@@....
    .....@@@...@....@@@...@.....
    .....@@@...@....@@@...@.....
    .....@@@..@@....@@@..@@.....
    ......@@@.@......@@@.@......
    ......@@@.@......@@@.@......
    ......@@@@@......@@@@@......
    .......@@@........@@@.......
    .......@@@........@@@.......
    ........@..........@........
    ........@..........@........
    ............................
    ............................
    ............................
    ............................
    ............................
    ............................
    ............................
    ............................
    ............................

0x78:
u+0078:
    ....................
    ....................
    ....................
    ....................
    ....................
    ....................
    ....................
    ....................
    ....................
    ....................
    ....................
    ....................
    ....................
    ....................
    ....................
    .@@@@@@@@...@@@@@@@.
    ...@@@@.......@@@...
    ....@@@.......@@....
    .....@@@.....@@.....
    .....@@@@...@@......
    ......@@@...@@......
    .......@@@.@@.......
    ........@@@@........
    ........@@@@........
    .........@@@........
    ........@@@@@.......
    .......@@.@@@@......
    ......@@...@@@......
    ......@@....@@@.....
    .....@@.....@@@@....
    ....@@.......@@@....
    ...@@.........@@@...
    ..@@@.........@@@@..
    @@@@@@@.....@@@@@@@@
    ....................
    ....................
    ....................
    ....................
    ....................
    ....................
    ....................
    ....................
    ....................

0x79:
u+0079:
    ..................
    ..................
    ..................
    ..................
    ..................
    ..................
    ..................
    ..................
    ..................
    ..................
    ..................
    ..................
    ..................
    ..................
    ..................
    @@@@@@.......@@@@@
    .@@@@.........@@@.
    ..@@@..........@..
    ..@@@@........@@..
    ...@@@........@...
    ...@@@@.......@...
    ....@@@......@@...
    ....@@@@.....@....
    .....@@@.....@....
    .....@@@@...@@....
    ......@@@...@.....
    ......@@@@..@.....
    .......@@@.@@.....
    .......@@@@@......
    ........@@@@......
    ........@@@@......
    .........@@.......
    .........@@.......
    .........@........
    ........@@........
    ........@.........
    .......@@.........
    .......@..........
    ..@@..@@..........
    .@@@@@@...........
    .@@@@@............
    ..@@@.............
    ..................

0x7a:
u+007a:
    ..................
    ..................
    ..................
    ..................
    ..................
    ..................
    ..................
    ..................
    ..................
    ..................
    ..................
    ..................
    ..................
    ..................
    ..................
    .@@@@@@@@@@@@@@@@.
    .@@@........@@@@..
    .@@.........@@@...
    .@.........@@@....
    .@........@@@@....
    ..........@@@.....
    .........@@@......
    ........@@@@......
    ........@@@.......
    .......@@@@.......
    ......@@@@........
    ......@@@.........
    .....@@@..........
    ....@@@@..........
    ...@@@@.........@.
    ...@@@..........@.
    ..@@@@.........@@.
    .@@@@.........@@@.
    .@@@@@@@@@@@@@@@@.
    ..................
    ..................
    ..................
    ..................
    ..................
    ..................
    ..................
    ..................
    ..................

0x7b:
u+007b:
    ...................
    ...................
    ...................
    ...................
    ...................
    ...................
    ...................
    ...........@@@@@...
    .........@@@@......
    .........@@@.......
    ........@@@........
    ........@@@........
    ........@@@........
    ........@@@........
    ........@@@........
    ........@@@........
    ........@@@........
    ........@@@........
    ........@@@........
    ........@@@........
    ........@@@........
    ........@@.........
    .......@@@.........
    .....@@@@..........
    ...@@@.............
    .....@@@@..........
    .......@@@.........
    ........@@.........
    ........@@@........
    ........@@@........
    ........@@@........
    ........@@@........
    ........@@@........
    ........@@@........
    ........@@@........
    ........@@@........
    ........@@@........
    ........@@@........
    ........@@@........
    ........@@@........
    .........@@@.......
    .........@@@@......
    ...........@@@@@...

0x7c:
u+007c:
    ........
    ........
    ........
    ...@@@..
    ...@@@..
    ...@@@..
    ...@@@..
    ...@@@..
    ...@@@..
    ...@@@..
    ...@@@..
    ...@@@..
    ...@@@..
    ...@@@..
    ...@@@..
    ...@@@..
    ...@@@..
    ...@@@..
    ...@@@..
    ...@@@..
    ...@@@..
    ...@@@..
    ...@@@..
    ...@@@..
    ...@@@..
    ...@@@..
    ...@@@..
    ...@@@..
    ...@@@..
    ...@@@..
    ...@@@..
    ...@@@..
    ...@@@..
    ...@@@..
    ...@@@..
    ...@@@..
    ...@@@..
    ...@@@..
    ...@@@..
    ...@@@..
    ...@@@..
    ...@@@..
    ...@@@..

0x7d:
u+007d:
    ...................
    ...................
    ...................
    ...................
    ...................
    ...................
    ...................
    ...@@@@@...........
    ......@@@@.........
    .......@@@.........
    ........@@@........
    ........@@@........
    ........@@@........
    ........@@@........
    ........@@@........
    ........@@@........
    ........@@@........
    ........@@@........
    ........@@@........
    ........@@@........
    ........@@@........
    .........@@........
    .........@@@.......
    ..........@@@@.....
    .............@@@...
    ..........@@@@.....
    .........@@@.......
    .........@@........
    ........@@@........
    ........@@@........
    ........@@@........
    ........@@@........
    ........@@@........
    ........@@@........
    ........@@@........
    ........@@@........
    ........@@@........
    ........@@@........
    ........@@@........
    ........@@@........
    .......@@@.........
    ......@@@@.........
    ...@@@@@...........

0x7e:
u+007e:
    .............
    .............
    .............
    .............
    .............
    .............
    .............
    ...@@@@...@@.
    .@@@@@@@@@@@.
    .@@...@@@@...
    .............
    .............
    .............
    .............
    .............
    .............
    .............
    .............
    .............
    .............
    .............
    .............
    .............
    .............
    .............
    .............
    .............
    .............
    .............
    .............
    .............
    .............
    .............
    .............
    .............
    .............
    .............
    .............
    .............
    .............
    .............
    .............
    .............

0x7f:
u+007f:
    .......................................
    .......................................
    .......................................
    @@@@@@@......@@@@@@@......@@@@@@@......
    @@@@@@@......@@@@@@@......@@@@@@@......
    @@@@@@@......@@@@@@@......@@@@@@@......
    @@@@@@@......@@@@@@@......@@@@@@@......
    @@@@@@@......@@@@@@@......@@@@@@@......
    @@@@@@@......@@@@@@@......@@@@@@@......
    @@@@@@@......@@@@@@@......@@@@@@@......
    .......@@@@@@.......@@@@@@.......@@@@@@
    .......@@@@@@.......@@@@@@.......@@@@@@
    .......@@@@@@.......@@@@@@.......@@@@@@
    .......@@@@@@.......@@@@@@.......@@@@@@
    .......@@@@@@.......@@@@@@.......@@@@@@
    .......@@@@@@.......@@@@@@.......@@@@@@
    @@@@@@@......@@@@@@@......@@@@@@@......
    @@@@@@@......@@@@@@@......@@@@@@@......
    @@@@@@@......@@@@@@@......@@@@@@@......
    @@@@@@@......@@@@@@@......@@@@@@@......
    @@@@@@@......@@@@@@@......@@@@@@@......
    @@@@@@@......@@@@@@@......@@@@@@@......
    @@@@@@@......@@@@@@@......@@@@@@@......
    .......@@@@@@.......@@@@@@.......@@@@@@
    .......@@@@@@.......@@@@@@.......@@@@@@
    .......@@@@@@.......@@@@@@.......@@@@@@
    .......@@@@@@.......@@@@@@.......@@@@@@
    .......@@@@@@.......@@@@@@.......@@@@@@
    .......@@@@@@.......@@@@@@.......@@@@@@
    .......@@@@@@.......@@@@@@.......@@@@@@
    @@@@@@@......@@@@@@@......@@@@@@@......
    @@@@@@@......@@@@@@@......@@@@@@@......
    @@@@@@@......@@@@@@@......@@@@@@@......
    @@@@@@@......@@@@@@@......@@@@@@@......
    @@@@@@@......@@@@@@@......@@@@@@@......
    @@@@@@@......@@@@@@@......@@@@@@@......
    @@@@@@@......@@@@@@@......@@@@@@@......
    .......@@@@@@.......@@@@@@.......@@@@@@
    .......@@@@@@.......@@@@@@.......@@@@@@
    .......@@@@@@.......@@@@@@.......@@@@@@
    .......@@@@@@.......@@@@@@.......@@@@@@
    .......@@@@@@.......@@@@@@.......@@@@@@
    .......@@@@@@.......@@@@@@.......@@@@@@

0x80:
u+20ac:
    ..........
    ..........
    ..........
    ..........
    ..........
    ..........
    ..........
    ..........
    ..........
    ..........
    ..........
    ..........
    ..........
    ..........
    ..........
    ..........
    ..........
    ..........
    ..........
    ..........
    ..........
    ..........
    ..........
    ..........
    ..........
    ..........
    ..........
    ..........
    ..........
    ....@@@...
    ...@@@@@..
    ...@@@@@..
    ...@@@@@..
    ....@@@...
    ..........
    ..........
    ..........
    ..........
    ..........
    ..........
    ..........
    ..........
    ..........

0x81:
    ..........
    ..........
    ..........
    ..........
    ..........
    ..........
    ..........
    ..........
    ..........
    ..........
    ..........
    ..........
    ..........
    ..........
    ..........
    ..........
    ..........
    ..........
    ..........
    ..........
    ..........
    ..........
    ..........
    ..........
    ..........
    ..........
    ..........
    ..........
    ..........
    ....@@@...
    ...@@@@@..
    ...@@@@@..
    ...@@@@@..
    ....@@@...
    ..........
    ..........
    ..........
    ..........
    ..........
    ..........
    ..........
    ..........
    ..........

0x82:
u+201a:
    ..........
    ..........
    ..........
    ..........
    ..........
    ..........
    ..........
    ..........
    ..........
    ..........
    ..........
    ..........
    ..........
    ..........
    ..........
    ..........
    ..........
    ..........
    ..........
    ..........
    ..........
    ..........
    ..........
    ..........
    ..........
    ..........
    ..........
    ..........
    ..........
    ....@@@...
    ...@@@@@..
    ...@@@@@..
    ...@@@@@..
    ....@@@...
    ..........
    ..........
    ..........
    ..........
    ..........
    ..........
    ..........
    ..........
    ..........

0x83:
u+0192:
    ..........
    ..........
    ..........
    ..........
    ..........
    ..........
    ..........
    ..........
    ..........
    ..........
    ..........
    ..........
    ..........
    ..........
    ..........
    ..........
    ..........
    ..........
    ..........
    ..........
    ..........
    ..........
    ..........
    ..........
    ..........
    ..........
    ..........
    ..........
    ..........
    ....@@@...
    ...@@@@@..
    ...@@@@@..
    ...@@@@@..
    ....@@@...
    ..........
    ..........
    ..........
    ..........
    ..........
    ..........
    ..........
    ..........
    ..........

0x84:
u+201e:
    ..........
    ..........
    ..........
    ..........
    ..........
    ..........
    ..........
    ..........
    ..........
    ..........
    ..........
    ..........
    ..........
    ..........
    ..........
    ..........
    ..........
    ..........
    ..........
    ..........
    ..........
    ..........
    ..........
    ..........
    ..........
    ..........
    ..........
    ..........
    ..........
    ....@@@...
    ...@@@@@..
    ...@@@@@..
    ...@@@@@..
    ....@@@...
    ..........
    ..........
    ..........
    ..........
    ..........
    ..........
    ..........
    ..........
    ..........

0x85:
u+2026:
    ..........
    ..........
    ..........
    ..........
    ..........
    ..........
    ..........
    ..........
    ..........
    ..........
    ..........
    ..........
    ..........
    ..........
    ..........
    ..........
    ..........
    ..........
    ..........
    ..........
    ..........
    ..........
    ..........
    ..........
    ..........
    ..........
    ..........
    ..........
    ..........
    ....@@@...
    ...@@@@@..
    ...@@@@@..
    ...@@@@@..
    ....@@@...
    ..........
    ..........
    ..........
    ..........
    ..........
    ..........
    ..........
    ..........
    ..........

0x86:
u+2020:
    ..........
    ..........
    ..........
    ..........
    ..........
    ..........
    ..........
    ..........
    ..........
    ..........
    ..........
    ..........
    ..........
    ..........
    ..........
    ..........
    ..........
    ..........
    ..........
    ..........
    ..........
    ..........
    ..........
    ..........
    ..........
    ..........
    ..........
    ..........
    ..........
    ....@@@...
    ...@@@@@..
    ...@@@@@..
    ...@@@@@..
    ....@@@...
    ..........
    ..........
    ..........
    ..........
    ..........
    ..........
    ..........
    ..........
    ..........

0x87:
u+2021:
    ..........
    ..........
    ..........
    ..........
    ..........
    ..........
    ..........
    ..........
    ..........
    ..........
    ..........
    ..........
    ..........
    ..........
    ..........
    ..........
    ..........
    ..........
    ..........
    ..........
    ..........
    ..........
    ..........
    ..........
    ..........
    ..........
    ..........
    ..........
    ..........
    ....@@@...
    ...@@@@@..
    ...@@@@@..
    ...@@@@@..
    ....@@@...
    ..........
    ..........
    ..........
    ..........
    ..........
    ..........
    ..........
    ..........
    ..........

0x88:
u+02c6:
    ..........
    ..........
    ..........
    ..........
    ..........
    ..........
    ..........
    ..........
    ..........
    ..........
    ..........
    ..........
    ..........
    ..........
    ..........
    ..........
    ..........
    ..........
    ..........
    ..........
    ..........
    ..........
    ..........
    ..........
    ..........
    ..........
    ..........
    ..........
    ..........
    ....@@@...
    ...@@@@@..
    ...@@@@@..
    ...@@@@@..
    ....@@@...
    ..........
    ..........
    ..........
    ..........
    ..........
    ..........
    ..........
    ..........
    ..........

0x89:
u+2030:
    ..........
    ..........
    ..........
    ..........
    ..........
    ..........
    ..........
    ..........
    ..........
    ..........
    ..........
    ..........
    ..........
    ..........
    ..........
    ..........
    ..........
    ..........
    ..........
    ..........
    ..........
    ..........
    ..........
    ..........
    ..........
    ..........
    ..........
    ..........
    ..........
    ....@@@...
    ...@@@@@..
    ...@@@@@..
    ...@@@@@..
    ....@@@...
    ..........
    ..........
    ..........
    ..........
    ..........
    ..........
    ..........
    ..........
    ..........

0x8a:
u+0160:
    ..........
    ..........
    ..........
    ..........
    ..........
    ..........
    ..........
    ..........
    ..........
    ..........
    ..........
    ..........
    ..........
    ..........
    ..........
    ..........
    ..........
    ..........
    ..........
    ..........
    ..........
    ..........
    ..........
    ..........
    ..........
    ..........
    ..........
    ..........
    ..........
    ....@@@...
    ...@@@@@..
    ...@@@@@..
    ...@@@@@..
    ....@@@...
    ..........
    ..........
    ..........
    ..........
    ..........
    ..........
    ..........
    ..........
    ..........

0x8b:
u+2039:
    ..........
    ..........
    ..........
    ..........
    ..........
    ..........
    ..........
    ..........
    ..........
    ..........
    ..........
    ..........
    ..........
    ..........
    ..........
    ..........
    ..........
    ..........
    ..........
    ..........
    ..........
    ..........
    ..........
    ..........
    ..........
    ..........
    ..........
    ..........
    ..........
    ....@@@...
    ...@@@@@..
    ...@@@@@..
    ...@@@@@..
    ....@@@...
    ..........
    ..........
    ..........
    ..........
    ..........
    ..........
    ..........
    ..........
    ..........

0x8c:
u+0152:
    ..........
    ..........
    ..........
    ..........
    ..........
    ..........
    ..........
    ..........
    ..........
    ..........
    ..........
    ..........
    ..........
    ..........
    ..........
    ..........
    ..........
    ..........
    ..........
    ..........
    ..........
    ..........
    ..........
    ..........
    ..........
    ..........
    ..........
    ..........
    ..........
    ....@@@...
    ...@@@@@..
    ...@@@@@..
    ...@@@@@..
    ....@@@...
    ..........
    ..........
    ..........
    ..........
    ..........
    ..........
    ..........
    ..........
    ..........

0x8d:
    ..........
    ..........
    ..........
    ..........
    ..........
    ..........
    ..........
    ..........
    ..........
    ..........
    ..........
    ..........
    ..........
    ..........
    ..........
    ..........
    ..........
    ..........
    ..........
    ..........
    ..........
    ..........
    ..........
    ..........
    ..........
    ..........
    ..........
    ..........
    ..........
    ....@@@...
    ...@@@@@..
    ...@@@@@..
    ...@@@@@..
    ....@@@...
    ..........
    ..........
    ..........
    ..........
    ..........
    ..........
    ..........
    ..........
    ..........

0x8e:
    ..........
    ..........
    ..........
    ..........
    ..........
    ..........
    ..........
    ..........
    ..........
    ..........
    ..........
    ..........
    ..........
    ..........
    ..........
    ..........
    ..........
    ..........
    ..........
    ..........
    ..........
    ..........
    ..........
    ..........
    ..........
    ..........
    ..........
    ..........
    ..........
    ....@@@...
    ...@@@@@..
    ...@@@@@..
    ...@@@@@..
    ....@@@...
    ..........
    ..........
    ..........
    ..........
    ..........
    ..........
    ..........
    ..........
    ..........

0x8f:
    ..........
    ..........
    ..........
    ..........
    ..........
    ..........
    ..........
    ..........
    ..........
    ..........
    ..........
    ..........
    ..........
    ..........
    ..........
    ..........
    ..........
    ..........
    ..........
    ..........
    ..........
    ..........
    ..........
    ..........
    ..........
    ..........
    ..........
    ..........
    ..........
    ....@@@...
    ...@@@@@..
    ...@@@@@..
    ...@@@@@..
    ....@@@...
    ..........
    ..........
    ..........
    ..........
    ..........
    ..........
    ..........
    ..........
    ..........

0x90:
    ..........
    ..........
    ..........
    ..........
    ..........
    ..........
    ..........
    ..........
    ..........
    ..........
    ..........
    ..........
    ..........
    ..........
    ..........
    ..........
    ..........
    ..........
    ..........
    ..........
    ..........
    ..........
    ..........
    ..........
    ..........
    ..........
    ..........
    ..........
    ..........
    ....@@@...
    ...@@@@@..
    ...@@@@@..
    ...@@@@@..
    ....@@@...
    ..........
    ..........
    ..........
    ..........
    ..........
    ..........
    ..........
    ..........
    ..........

0x91:
u+2018:
    .............
    .............
    .............
    ........@....
    ......@@.....
    .....@@......
    ....@@.......
    ....@@.......
    ...@@........
    ...@@@@@.....
    ...@@@@@@....
    ...@@@@@@....
    ....@@@@@....
    .....@@@.....
    .............
    .............
    .............
    .............
    .............
    .............
    .............
    .............
    .............
    .............
    .............
    .............
    .............
    .............
    .............
    .............
    .............
    .............
    .............
    .............
    .............
    .............
    .............
    .............
    .............
    .............
    .............
    .............
    .............

0x92:
u+2019:
    .............
    .............
    .............
    ....@@@......
    ...@@@@@.....
    ...@@@@@@....
    ...@@@@@@....
    ....@@@@@....
    .......@@....
    ......@@.....
    ......@@.....
    .....@@......
    ....@@.......
    ...@.........
    .............
    .............
    .............
    .............
    .............
    .............
    .............
    .............
    .............
    .............
    .............
    .............
    .............
    .............
    .............
    .............
    .............
    .............
    .............
    .............
    .............
    .............
    .............
    .............
    .............
    .............
    .............
    .............
    .............

0x93:
u+201c:
    ..........
    ..........
    ..........
    ..........
    ..........
    ..........
    ..........
    ..........
    ..........
    ..........
    ..........
    ..........
    ..........
    ..........
    ..........
    ..........
    ..........
    ..........
    ..........
    ..........
    ..........
    ..........
    ..........
    ..........
    ..........
    ..........
    ..........
    ..........
    ..........
    ....@@@...
    ...@@@@@..
    ...@@@@@..
    ...@@@@@..
    ....@@@...
    ..........
    ..........
    ..........
    ..........
    ..........
    ..........
    ..........
    ..........
    ..........

0x94:
u+201d:
    ..........
    ..........
    ..........
    ..........
    ..........
    ..........
    ..........
    ..........
    ..........
    ..........
    ..........
    ..........
    ..........
    ..........
    ..........
    ..........
    ..........
    ..........
    ..........
    ..........
    ..........
    ..........
    ..........
    ..........
    ..........
    ..........
    ..........
    ..........
    ..........
    ....@@@...
    ...@@@@@..
    ...@@@@@..
    ...@@@@@..
    ....@@@...
    ..........
    ..........
    ..........
    ..........
    ..........
    ..........
    ..........
    ..........
    ..........

0x95:
u+2022:
    ..........
    ..........
    ..........
    ..........
    ..........
    ..........
    ..........
    ..........
    ..........
    ..........
    ..........
    ..........
    ..........
    ..........
    ..........
    ..........
    ..........
    ..........
    ..........
    ..........
    ..........
    ..........
    ..........
    ..........
    ..........
    ..........
    ..........
    ..........
    ..........
    ....@@@...
    ...@@@@@..
    ...@@@@@..
    ...@@@@@..
    ....@@@...
    ..........
    ..........
    ..........
    ..........
    ..........
    ..........
    ..........
    ..........
    ..........

0x96:
u+2013:
    ..........
    ..........
    ..........
    ..........
    ..........
    ..........
    ..........
    ..........
    ..........
    ..........
    ..........
    ..........
    ..........
    ..........
    ..........
    ..........
    ..........
    ..........
    ..........
    ..........
    ..........
    ..........
    ..........
    ..........
    ..........
    ..........
    ..........
    ..........
    ..........
    ....@@@...
    ...@@@@@..
    ...@@@@@..
    ...@@@@@..
    ....@@@...
    ..........
    ..........
    ..........
    ..........
    ..........
    ..........
    ..........
    ..........
    ..........

0x97:
u+2014:
    ..........
    ..........
    ..........
    ..........
    ..........
    ..........
    ..........
    ..........
    ..........
    ..........
    ..........
    ..........
    ..........
    ..........
    ..........
    ..........
    ..........
    ..........
    ..........
    ..........
    ..........
    ..........
    ..........
    ..........
    ..........
    ..........
    ..........
    ..........
    ..........
    ....@@@...
    ...@@@@@..
    ...@@@@@..
    ...@@@@@..
    ....@@@...
    ..........
    ..........
    ..........
    ..........
    ..........
    ..........
    ..........
    ..........
    ..........

0x98:
u+02dc:
    ..........
    ..........
    ..........
    ..........
    ..........
    ..........
    ..........
    ..........
    ..........
    ..........
    ..........
    ..........
    ..........
    ..........
    ..........
    ..........
    ..........
    ..........
    ..........
    ..........
    ..........
    ..........
    ..........
    ..........
    ..........
    ..........
    ..........
    ..........
    ..........
    ....@@@...
    ...@@@@@..
    ...@@@@@..
    ...@@@@@..
    ....@@@...
    ..........
    ..........
    ..........
    ..........
    ..........
    ..........
    ..........
    ..........
    ..........

0x99:
u+2122:
    ..........
    ..........
    ..........
    ..........
    ..........
    ..........
    ..........
    ..........
    ..........
    ..........
    ..........
    ..........
    ..........
    ..........
    ..........
    ..........
    ..........
    ..........
    ..........
    ..........
    ..........
    ..........
    ..........
    ..........
    ..........
    ..........
    ..........
    ..........
    ..........
    ....@@@...
    ...@@@@@..
    ...@@@@@..
    ...@@@@@..
    ....@@@...
    ..........
    ..........
    ..........
    ..........
    ..........
    ..........
    ..........
    ..........
    ..........

0x9a:
u+0161:
    ..........
    ..........
    ..........
    ..........
    ..........
    ..........
    ..........
    ..........
    ..........
    ..........
    ..........
    ..........
    ..........
    ..........
    ..........
    ..........
    ..........
    ..........
    ..........
    ..........
    ..........
    ..........
    ..........
    ..........
    ..........
    ..........
    ..........
    ..........
    ..........
    ....@@@...
    ...@@@@@..
    ...@@@@@..
    ...@@@@@..
    ....@@@...
    ..........
    ..........
    ..........
    ..........
    ..........
    ..........
    ..........
    ..........
    ..........

0x9b:
u+203a:
    ..........
    ..........
    ..........
    ..........
    ..........
    ..........
    ..........
    ..........
    ..........
    ..........
    ..........
    ..........
    ..........
    ..........
    ..........
    ..........
    ..........
    ..........
    ..........
    ..........
    ..........
    ..........
    ..........
    ..........
    ..........
    ..........
    ..........
    ..........
    ..........
    ....@@@...
    ...@@@@@..
    ...@@@@@..
    ...@@@@@..
    ....@@@...
    ..........
    ..........
    ..........
    ..........
    ..........
    ..........
    ..........
    ..........
    ..........

0x9c:
u+0153:
    ..........
    ..........
    ..........
    ..........
    ..........
    ..........
    ..........
    ..........
    ..........
    ..........
    ..........
    ..........
    ..........
    ..........
    ..........
    ..........
    ..........
    ..........
    ..........
    ..........
    ..........
    ..........
    ..........
    ..........
    ..........
    ..........
    ..........
    ..........
    ..........
    ....@@@...
    ...@@@@@..
    ...@@@@@..
    ...@@@@@..
    ....@@@...
    ..........
    ..........
    ..........
    ..........
    ..........
    ..........
    ..........
    ..........
    ..........

0x9d:
    ..........
    ..........
    ..........
    ..........
    ..........
    ..........
    ..........
    ..........
    ..........
    ..........
    ..........
    ..........
    ..........
    ..........
    ..........
    ..........
    ..........
    ..........
    ..........
    ..........
    ..........
    ..........
    ..........
    ..........
    ..........
    ..........
    ..........
    ..........
    ..........
    ....@@@...
    ...@@@@@..
    ...@@@@@..
    ...@@@@@..
    ....@@@...
    ..........
    ..........
    ..........
    ..........
    ..........
    ..........
    ..........
    ..........
    ..........

0x9e:
    ..........
    ..........
    ..........
    ..........
    ..........
    ..........
    ..........
    ..........
    ..........
    ..........
    ..........
    ..........
    ..........
    ..........
    ..........
    ..........
    ..........
    ..........
    ..........
    ..........
    ..........
    ..........
    ..........
    ..........
    ..........
    ..........
    ..........
    ..........
    ..........
    ....@@@...
    ...@@@@@..
    ...@@@@@..
    ...@@@@@..
    ....@@@...
    ..........
    ..........
    ..........
    ..........
    ..........
    ..........
    ..........
    ..........
    ..........

0x9f:
u+0178:
    ..........
    ..........
    ..........
    ..........
    ..........
    ..........
    ..........
    ..........
    ..........
    ..........
    ..........
    ..........
    ..........
    ..........
    ..........
    ..........
    ..........
    ..........
    ..........
    ..........
    ..........
    ..........
    ..........
    ..........
    ..........
    ..........
    ..........
    ..........
    ..........
    ....@@@...
    ...@@@@@..
    ...@@@@@..
    ...@@@@@..
    ....@@@...
    ..........
    ..........
    ..........
    ..........
    ..........
    ..........
    ..........
    ..........
    ..........

0xa0:
u+00a0:
    ..........
    ..........
    ..........
    ..........
    ..........
    ..........
    ..........
    ..........
    ..........
    ..........
    ..........
    ..........
    ..........
    ..........
    ..........
    ..........
    ..........
    ..........
    ..........
    ..........
    ..........
    ..........
    ..........
    ..........
    ..........
    ..........
    ..........
    ..........
    ..........
    ..........
    ..........
    ..........
    ..........
    ..........
    ..........
    ..........
    ..........
    ..........
    ..........
    ..........
    ..........
    ..........
    ..........

0xa1:
u+00a1:
    .............
    .............
    .............
    .............
    .............
    .............
    .............
    .....@@@.....
    ....@@@@@....
    ....@@@@@....
    ....@@@@@....
    .....@@@.....
    .............
    .............
    .............
    ......@......
    ......@......
    ......@......
    ......@......
    .....@@@.....
    .....@@@.....
    .....@@@.....
    .....@@@.....
    .....@@@.....
    .....@@@.....
    .....@@@.....
    .....@@@.....
    ....@@@@@....
    ....@@@@@....
    ....@@@@@....
    ....@@@@@....
    ....@@@@@....
    ....@@@@@....
    .....@@@.....
    .............
    .............
    .............
    .............
    .............
    .............
    .............
    .............
    .............

0xa2:
u+00a2:
    ....................
    ....................
    ....................
    ....................
    ....................
    ....................
    ....................
    ....................
    ....................
    ....................
    ....................
    ....................
    ..............@@....
    ..............@@....
    ..............@.....
    .......@@@@@@@@.....
    .....@@@@..@@@@@....
    ....@@@.....@@@@@...
    ...@@@......@@@@@...
    ..@@@.......@@@@@...
    ..@@@......@@.@@....
    .@@@.......@@.......
    .@@@.......@........
    .@@@......@@........
    .@@@......@@........
    .@@@.....@@.........
    .@@@@....@@.........
    .@@@@....@@......@..
    ..@@@@..@@......@...
    ..@@@@@.@@.....@@...
    ...@@@@@@....@@@....
    ...@@@@@@@@@@@@.....
    .....@@@@@@@@@......
    .......@@@@@........
    ......@@............
    ......@@............
    ......@.............
    ....................
    ....................
    ....................
    ....................
    ....................
    ....................

0xa3:
u+00a3:
    ....................
    ....................
    ....................
    ....................
    ....................
    ....................
    ....................
    ...........@@@@.....
    .........@@@.@@@@...
    ........@@@...@@@@..
    .......@@@@....@@@..
    .......@@@.....@@@..
    .......@@@......@...
    ......@@@@..........
    ......@@@@..........
    ......@@@@..........
    ......@@@@..........
    ......@@@@..........
    ......@@@@..........
    ..@@@@@@@@@@@@@.....
    ......@@@@..........
    ......@@@@..........
    ......@@@@..........
    ......@@@@..........
    .......@@@..........
    .......@@@..........
    .......@@@..........
    .......@@@..........
    ...@@@@@@...........
    .@@@.@@@@@.......@@.
    @@....@@@@@@@@@@@@@.
    @.....@.@@@@@@@@@@..
    @@..@@@...@@@@@@@...
    .@@@@.......@@@@....
    ....................
    ....................
    ....................
    ....................
    ....................
    ....................
    ....................
    ....................
    ....................

0xa4:
u+00a4:
    ....................
    ....................
    ....................
    ....................
    ....................
    ....................
    ....................
    @@................@@
    @@@..............@@@
    .@@@...@@@@@@...@@@.
    ..@@@@@@@@@@@@@@@@..
    ...@@@@@....@@@@@...
    ...@@@........@@@...
    ...@@..........@@...
    ..@@@..........@@@..
    ..@@............@@..
    ..@@............@@..
    ..@@............@@..
    ..@@............@@..
    ..@@@..........@@@..
    ...@@..........@@...
    ...@@@........@@@...
    ...@@@@@....@@@@@...
    ..@@@@@@@@@@@@@@@@..
    .@@@...@@@@@@...@@@.
    @@@..............@@@
    @@................@@
    ....................
    ....................
    ....................
    ....................
    ....................
    ....................
    ....................
    ....................
    ....................
    ....................
    ....................
    ....................
    ....................
    ....................
    ....................
    ....................

0xa5:
u+00a5:
    ....................
    ....................
    ....................
    ....................
    ....................
    ....................
    ....................
    @@@@@@@.......@@@@@.
    .@@@@@..........@...
    ..@@@..........@@...
    ..@@@@.........@....
    ...@@@........@@....
    ...@@@@.......@.....
    ....@@@......@@.....
    ....@@@@.....@......
    .....@@@.....@......
    @@@@@@@@@...@@@@@@@.
    ......@@@...@.......
    ......@@@@.@@.......
    .......@@@.@........
    .......@@@@@........
    @@@@@@@@@@@@@@@@@@@.
    ........@@@.........
    ........@@@.........
    ........@@@.........
    ........@@@.........
    ........@@@.........
    ........@@@.........
    ........@@@.........
    ........@@@.........
    ........@@@.........
    ........@@@.........
    .......@@@@@........
    .....@@@@@@@@@......
    ....................
    ....................
    ....................
    ....................
    ....................
    ....................
    ....................
    ....................
    ....................

0xa6:
u+00a6:
    ........
    ........
    ........
    ........
    ........
    ...@@@..
    ...@@@..
    ...@@@..
    ...@@@..
    ...@@@..
    ...@@@..
    ...@@@..
    ...@@@..
    ...@@@..
    ...@@@..
    ...@@@..
    ...@@@..
    ...@@@..
    ...@@@..
    ...@@@..
    ........
    ........
    ........
    ........
    ........
    ...@@@..
    ...@@@..
    ...@@@..
    ...@@@..
    ...@@@..
    ...@@@..
    ...@@@..
    ...@@@..
    ...@@@..
    ...@@@..
    ...@@@..
    ...@@@..
    ...@@@..
    ...@@@..
    ...@@@..
    ........
    ........
    ........

0xa7:
u+00a7:
    ....................
    ....................
    ....................
    ....................
    ....................
    ....................
    ....................
    ........@@@@@.......
    ......@@@@..@@@.....
    ......@@@....@@@....
    .....@@@....@@@@....
    .....@@@....@@@@....
    .....@@@.....@@.....
    .....@@@@...........
    ......@@@...........
    ......@@@@@.........
    .......@@@@@........
    ........@@@@@.......
    ......@@@@@@@@@.....
    ....@@@...@@@@@@....
    ....@@......@@@@@...
    ...@@@.......@@@@...
    ...@@@........@@@@..
    ...@@@@.......@@@@..
    ...@@@@........@@@..
    ....@@@@.......@@@..
    ....@@@@@......@@...
    .....@@@@@@...@@@...
    ......@@@@@@@@@.....
    ........@@@@@.......
    .........@@@@@......
    ..........@@@@@.....
    ............@@@.....
    ............@@@@....
    ......@@.....@@@....
    .....@@@@....@@@....
    .....@@@@....@@@....
    .....@@@....@@@.....
    ......@@@..@@@@.....
    ........@@@@@.......
    ....................
    ....................
    ....................

0xa8:
u+00a8:
    .............
    .............
    .............
    ..@@.....@@..
    .@@@@...@@@@.
    .@@@@...@@@@.
    ..@@.....@@..
    .............
    .............
    .............
    .............
    .............
    .............
    .............
    .............
    .............
    .............
    .............
    .............
    .............
    .............
    .............
    .............
    .............
    .............
    .............
    .............
    .............
    .............
    .............
    .............
    .............
    .............
    .............
    .............
    .............
    .............
    .............
    .............
    .............
    .............
    .............
    .............

0xa9:
u+00a9:
    ..............................
    ..............................
    ..............................
    ..............................
    ..............................
    ..............................
    ............@@@@@@@...........
    .........@@@@@@@@@@@@@........
    ........@@@@.......@@@@.......
    ......@@@@...........@@@@.....
    .....@@@@.............@@@@....
    ....@@@.................@@@...
    ....@@...................@@...
    ...@@........@@@@@.@@.....@@..
    ..@@@......@@@@@@@@@@.....@@@.
    ..@@......@@@@.....@@@.....@@.
    ..@@.....@@@@.......@@.....@@.
    .@@@.....@@@........@@.....@@@
    .@@.....@@@@................@@
    .@@.....@@@@................@@
    .@@.....@@@.................@@
    .@@.....@@@@................@@
    .@@.....@@@@................@@
    .@@@.....@@@...............@@@
    ..@@.....@@@@.......@@.....@@.
    ..@@......@@@@.....@@@.....@@.
    ..@@@......@@@@@@@@@@.....@@@.
    ...@@........@@@@@@.......@@..
    ....@@...................@@...
    ....@@@.................@@@...
    .....@@@@.............@@@@....
    ......@@@@...........@@@@.....
    ........@@@@.......@@@@.......
    .........@@@@@@@@@@@@@........
    ............@@@@@@@...........
    ..............................
    ..............................
    ..............................
    ..............................
    ..............................
    ..............................
    ..............................
    ..............................

0xaa:
u+00aa:
    ...........
    ...........
    ...........
    ...........
    ...........
    ...........
    ...........
    ...@@@@@...
    ..@@..@@@..
    .@@....@@..
    .@@....@@..
    .....@@@@..
    ...@@@.@@..
    ..@@...@@..
    .@@....@@..
    .@@....@@..
    .@@@.@@@@@@
    ..@@@@..@@.
    ...........
    ...........
    .@@@@@@@@@@
    .@@@@@@@@@@
    ...........
    ...........
    ...........
    ...........
    ...........
    ...........
    ...........
    ...........
    ...........
    ...........
    ...........
    ...........
    ...........
    ...........
    ...........
    ...........
    ...........
    ...........
    ...........
    ...........
    ...........

0xab:
u+00ab:
    ....................
    ....................
    ....................
    ....................
    ....................
    ....................
    ....................
    ....................
    ....................
    ....................
    ....................
    ....................
    ....................
    ....................
    ....................
    ....................
    ....................
    ........@@......@@..
    .......@@......@@...
    ......@@......@@....
    .....@@@.....@@@....
    ....@@@.....@@@.....
    ...@@@.....@@@......
    ..@@@.....@@@.......
    .@@@@....@@@@.......
    ..@@@.....@@@.......
    ...@@@.....@@@......
    ....@@@.....@@@.....
    .....@@@.....@@@....
    ......@@......@@....
    .......@@......@@...
    ........@@......@@..
    ....................
    ....................
    ....................
    ....................
    ....................
    ....................
    ....................
    ....................
    ....................
    ....................
    ....................

0xac:
u+00ac:
    ......................
    ......................
    ......................
    ......................
    ......................
    ......................
    ......................
    ......................
    ......................
    ......................
    ......................
    ......................
    ......................
    ......................
    ......................
    ......................
    ......................
    ..@@@@@@@@@@@@@@@@@@..
    ..@@@@@@@@@@@@@@@@@@..
    ..@@@@@@@@@@@@@@@@@@..
    .................@@@..
    .................@@@..
    .................@@@..
    .................@@@..
    .................@@@..
    .................@@@..
    .................@@@..
    ......................
    ......................
    ......................
    ......................
    ......................
    ......................
    ......................
    ......................
    ......................
    ......................
    ......................
    ......................
    ......................
    ......................
    ......................
    ......................

0xad:
u+00ad:
    .............
    .............
    .............
    .............
    .............
    .............
    .............
    .............
    .............
    .............
    .............
    .............
    .............
    .............
    .............
    .............
    .............
    .............
    .............
    .............
    .............
    .............
    .............
    .@@@@@@@@@@@.
    .@@@@@@@@@@@.
    .............
    .............
    .............
    .............
    .............
    .............
    .............
    .............
    .............
    .............
    .............
    .............
    .............
    .............
    .............
    .............
    .............
    .............

0xae:
u+00ae:
    ..............................
    ..............................
    ..............................
    ..............................
    ..............................
    ..............................
    ............@@@@@@@...........
    .........@@@@@@@@@@@@@........
    ........@@@@.......@@@@.......
    ......@@@@...........@@@@.....
    .....@@@@.............@@@@....
    ....@@@.................@@@...
    ....@@...................@@...
    ...@@...@@@@@@@@@@@.......@@..
    ..@@@....@@@@@@@@@@@@.....@@@.
    ..@@......@@@.....@@@......@@.
    ..@@......@@@......@@@.....@@.
    .@@@......@@@......@@@.....@@@
    .@@.......@@@......@@@......@@
    .@@.......@@@.....@@@.......@@
    .@@.......@@@@@@@@@@@.......@@
    .@@.......@@@@@@@@@.........@@
    .@@.......@@@...@@@@........@@
    .@@@......@@@....@@@.......@@@
    ..@@......@@@....@@@@......@@.
    ..@@......@@@.....@@@.@....@@.
    ..@@@....@@@@@....@@@@@...@@@.
    ...@@...@@@@@@@....@@@....@@..
    ....@@...................@@...
    ....@@@.................@@@...
    .....@@@@.............@@@@....
    ......@@@@...........@@@@.....
    ........@@@@.......@@@@.......
    .........@@@@@@@@@@@@@........
    ............@@@@@@@...........
    ..............................
    ..............................
    ..............................
    ..............................
    ..............................
    ..............................
    ..............................
    ..............................

0xaf:
u+00af:
    ....................
    @@@@@@@@@@@@@@@@@@@@
    @@@@@@@@@@@@@@@@@@@@
    @@@@@@@@@@@@@@@@@@@@
    ....................
    ....................
    ....................
    ....................
    ....................
    ....................
    ....................
    ....................
    ....................
    ....................
    ....................
    ....................
    ....................
    ....................
    ....................
    ....................
    ....................
    ....................
    ....................
    ....................
    ....................
    ....................
    ....................
    ....................
    ....................
    ....................
    ....................
    ....................
    ....................
    ....................
    ....................
    ....................
    ....................
    ....................
    ....................
    ....................
    ....................
    ....................
    ....................

0xb0:
u+00b0:
    ................
    ................
    ................
    ................
    ................
    ................
    ................
    ......@@@@@.....
    ....@@@@@@@@@...
    ....@@@...@@@...
    ...@@@.....@@@..
    ...@@@.....@@@..
    ...@@@.....@@@..
    ...@@@.....@@@..
    ....@@@...@@@...
    ....@@@@@@@@@...
    ......@@@@@.....
    ................
    ................
    ................
    ................
    ................
    ................
    ................
    ................
    ................
    ................
    ................
    ................
    ................
    ................
    ................
    ................
    ................
    ................
    ................
    ................
    ................
    ................
    ................
    ................
    ................
    ................

0xb1:
u+00b1:
    ......................
    ......................
    ......................
    ......................
    ......................
    ......................
    ......................
    ......................
    ......................
    ......................
    ......................
    ......................
    ..........@@@.........
    ..........@@@.........
    ..........@@@.........
    ..........@@@.........
    ..........@@@.........
    ..........@@@.........
    ..@@@@@@@@@@@@@@@@@@@.
    ..@@@@@@@@@@@@@@@@@@@.
    ..@@@@@@@@@@@@@@@@@@@.
    ..........@@@.........
    ..........@@@.........
    ..........@@@.........
    ..........@@@.........
    ..........@@@.........
    ..........@@@.........
    ......................
    ......................
    ......................
    ......................
    ..@@@@@@@@@@@@@@@@@@@.
    ..@@@@@@@@@@@@@@@@@@@.
    ..@@@@@@@@@@@@@@@@@@@.
    ......................
    ......................
    ......................
    ......................
    ......................
    ......................
    ......................
    ......................
    ......................

0xb2:
u+00b2:
    ............
    ............
    ............
    ............
    ............
    ............
    ............
    ....@@@@....
    ..@@@@@@@@..
    .@@@...@@@..
    .@.....@@@@.
    ........@@@.
    ........@@@.
    ........@@..
    .......@@@..
    .......@@...
    ......@@....
    .....@@.....
    ....@@......
    ...@.......@
    ..@.......@@
    .@@@@@@@@@@.
    @@@@@@@@@@@.
    ............
    ............
    ............
    ............
    ............
    ............
    ............
    ............
    ............
    ............
    ............
    ............
    ............
    ............
    ............
    ............
    ............
    ............
    ............
    ............

0xb3:
u+00b3:
    ............
    ............
    ............
    ............
    ............
    ............
    ............
    ....@@@@....
    ..@@@@@@@...
    ..@@..@@@@..
    .@@....@@@..
    .......@@@..
    .......@@...
    ......@@....
    ....@@@@....
    ......@@@@..
    ........@@..
    ........@@@.
    ........@@@.
    ........@@@.
    ..@....@@@..
    .@@@@.@@@@..
    ..@@@@@@....
    ............
    ............
    ............
    ............
    ............
    ............
    ............
    ............
    ............
    ............
    ............
    ............
    ............
    ............
    ............
    ............
    ............
    ............
    ............
    ............

0xb4:
u+00b4:
    .............
    .............
    .............
    ........@@@..
    .......@@@@..
    ......@@@@...
    .....@@@.....
    ....@@.......
    .............
    .............
    .............
    .............
    .............
    .............
    .............
    .............
    .............
    .............
    .............
    .............
    .............
    .............
    .............
    .............
    .............
    .............
    .............
    .............
    .............
    .............
    .............
    .............
    .............
    .............
    .............
    .............
    .............
    .............
    .............
    .............
    .............
    .............
    .............

0xb5:
u+00b5:
    ....................
    ....................
    ....................
    ....................
    ....................
    ....................
    ....................
    ....................
    ....................
    ....................
    ....................
    ....................
    ....................
    ....................
    ....................
    .......@@@.......@@@
    .......@@@.......@@@
    ......@@@@......@@@@
    ......@@@.......@@@.
    ......@@@.......@@@.
    .....@@@@......@@@@.
    .....@@@.......@@@..
    .....@@@.......@@@..
    ....@@@@......@@@@..
    ....@@@.......@@@...
    ....@@@.......@@@...
    ....@@@.......@@@...
    ...@@@@......@@@@...
    ...@@@......@@@@....
    ...@@@......@@@@....
    ..@@@@.....@@@@@..@.
    ..@@@@@..@@@.@@@.@@.
    ..@@@@@@@@@..@@@@@..
    ..@@.@@@@.....@@@...
    .@@@................
    .@@@................
    .@@@................
    .@@@................
    @@@.................
    @@@.................
    @@@.................
    @@@.................
    @@..................

0xb6:
u+00b6:
    ..................
    ..................
    ..................
    ..................
    ..................
    ..................
    ..................
    .....@@@@@@@@@@@@@
    ...@@@@@@@@@@@@@@@
    ..@@@@@@@@....@@..
    .@@@@@@@@@....@@..
    .@@@@@@@@@....@@..
    @@@@@@@@@@....@@..
    @@@@@@@@@@....@@..
    @@@@@@@@@@....@@..
    @@@@@@@@@@....@@..
    .@@@@@@@@@....@@..
    .@@@@@@@@@....@@..
    ..@@@@@@@@....@@..
    ...@@@@@@@....@@..
    .....@@@@@....@@..
    ........@@....@@..
    ........@@....@@..
    ........@@....@@..
    ........@@....@@..
    ........@@....@@..
    ........@@....@@..
    ........@@....@@..
    ........@@....@@..
    ........@@....@@..
    ........@@....@@..
    ........@@....@@..
    ........@@....@@..
    ........@@....@@..
    ..................
    ..................
    ..................
    ..................
    ..................
    ..................
    ..................
    ..................
    ..................

0xb7:
u+00b7:
    ..........
    ..........
    ..........
    ..........
    ..........
    ..........
    ..........
    ..........
    ..........
    ..........
    ..........
    ..........
    ..........
    ..........
    ..........
    ..........
    ..........
    ..........
    ....@@@...
    ...@@@@@..
    ...@@@@@..
    ...@@@@@..
    ....@@@...
    ..........
    ..........
    ..........
    ..........
    ..........
    ..........
    ..........
    ..........
    ..........
    ..........
    ..........
    ..........
    ..........
    ..........
    ..........
    ..........
    ..........
    ..........
    ..........
    ..........

0xb8:
u+00b8:
    .............
    .............
    .............
    .............
    .............
    .............
    .............
    .............
    .............
    .............
    .............
    .............
    .............
    .............
    .............
    .............
    .............
    .............
    .............
    .............
    .............
    .............
    .............
    .............
    .............
    .............
    .............
    .............
    .............
    .............
    .............
    .............
    .............
    .............
    .....@@......
    .....@@......
    .....@@@@@...
    ........@@@..
    .........@@@.
    ..@@.....@@@.
    ..@@@...@@@..
    ....@@@@@@...
    .............

0xb9:
u+00b9:
    ............
    ............
    ............
    ............
    ............
    ............
    ............
    .......@....
    .....@@@....
    ...@@@@@....
    ..@@.@@@....
    .....@@@....
    .....@@@....
    .....@@@....
    .....@@@....
    .....@@@....
    .....@@@....
    .....@@@....
    .....@@@....
    .....@@@....
    .....@@@....
    .....@@@....
    ..@@@@@@@@@.
    ............
    ............
    ............
    ............
    ............
    ............
    ............
    ............
    ............
    ............
    ............
    ............
    ............
    ............
    ............
    ............
    ............
    ............
    ............
    ............

0xba:
u+00ba:
    ............
    ............
    ............
    ............
    ............
    ............
    ............
    ....@@@@....
    ..@@@..@@@..
    ..@@....@@..
    .@@@....@@@.
    .@@......@@.
    .@@......@@.
    .@@......@@.
    .@@@....@@@.
    ..@@....@@..
    ..@@@..@@@..
    ....@@@@....
    ............
    ............
    .@@@@@@@@@@.
    .@@@@@@@@@@.
    ............
    ............
    ............
    ............
    ............
    ............
    ............
    ............
    ............
    ............
    ............
    ............
    ............
    ............
    ............
    ............
    ............
    ............
    ............
    ............
    ............

0xbb:
u+00bb:
    ....................
    ....................
    ....................
    ....................
    ....................
    ....................
    ....................
    ....................
    ....................
    ....................
    ....................
    ....................
    ....................
    ....................
    ....................
    ....................
    ....................
    ..@@......@@........
    ...@@......@@.......
    ....@@......@@......
    ....@@@.....@@@.....
    .....@@@.....@@@....
    ......@@@.....@@@...
    .......@@@.....@@@..
    .......@@@@....@@@@.
    .......@@@.....@@@..
    ......@@@.....@@@...
    .....@@@.....@@@....
    ....@@@.....@@@.....
    ....@@......@@......
    ...@@......@@.......
    ..@@......@@........
    ....................
    ....................
    ....................
    ....................
    ....................
    ....................
    ....................
    ....................
    ....................
    ....................
    ....................

0xbc:
u+00bc:
    ..............................
    ..............................
    ..............................
    ..............................
    ..............................
    ..............................
    ..............................
    .......@..............@@......
    .....@@@..............@@......
    ...@@@@@.............@@.......
    ..@@.@@@............@@........
    .....@@@............@@........
    .....@@@...........@@.........
    .....@@@..........@@..........
    .....@@@..........@@..........
    .....@@@.........@@...........
    .....@@@........@@............
    .....@@@........@@............
    .....@@@.......@@......@@@@...
    .....@@@......@@......@@@@@...
    .....@@@......@@......@.@@@...
    .....@@@.....@@......@@.@@@...
    ..@@@@@@@@@..@@......@..@@@...
    ............@@......@@..@@@...
    ...........@@.......@...@@@...
    ...........@@......@@...@@@...
    ..........@@.......@....@@@...
    .........@@.......@@@@@@@@@@@.
    .........@@.......@@@@@@@@@@@.
    ........@@..............@@@...
    .......@@...............@@@...
    .......@@...............@@@...
    ......@@................@@@...
    ......@@................@@@...
    ..............................
    ..............................
    ..............................
    ..............................
    ..............................
    ..............................
    ..............................
    ..............................
    ..............................

0xbd:
u+00bd:
    ..............................
    ..............................
    ..............................
    ..............................
    ..............................
    ..............................
    ..............................
    .......@..............@@......
    .....@@@..............@@......
    ...@@@@@.............@@.......
    ..@@.@@@............@@........
    .....@@@............@@........
    .....@@@...........@@.........
    .....@@@..........@@..........
    .....@@@..........@@..........
    .....@@@.........@@...........
    .....@@@........@@............
    .....@@@........@@............
    .....@@@.......@@....@@@@.....
    .....@@@......@@...@@@@@@@@...
    .....@@@......@@..@@@...@@@...
    .....@@@.....@@...@.....@@@@..
    ..@@@@@@@@@..@@..........@@@..
    ............@@...........@@@..
    ...........@@............@@...
    ...........@@...........@@@...
    ..........@@............@@....
    .........@@............@@.....
    .........@@...........@@......
    ........@@...........@@.......
    .......@@...........@.......@.
    .......@@..........@.......@@.
    ......@@..........@@@@@@@@@@..
    ......@@.........@@@@@@@@@@@..
    ..............................
    ..............................
    ..............................
    ..............................
    ..............................
    ..............................
    ..............................
    ..............................
    ..............................

0xbe:
u+00be:
    ..............................
    ..............................
    ..............................
    ..............................
    ..............................
    ..............................
    ..............................
    ....@@@@..............@@......
    ..@@@@@@@.............@@......
    ..@@..@@@@...........@@.......
    .@@....@@@..........@@........
    .......@@@..........@@........
    .......@@..........@@.........
    ......@@..........@@..........
    ....@@@@..........@@..........
    ......@@@@.......@@...........
    ........@@......@@............
    ........@@@.....@@............
    ........@@@....@@......@@@@...
    ........@@@...@@......@@@@@...
    ..@....@@@....@@......@.@@@...
    .@@@@.@@@@...@@......@@.@@@...
    ..@@@@@@.....@@......@..@@@...
    ............@@......@@..@@@...
    ...........@@.......@...@@@...
    ...........@@......@@...@@@...
    ..........@@.......@....@@@...
    .........@@.......@@@@@@@@@@@.
    .........@@.......@@@@@@@@@@@.
    ........@@..............@@@...
    .......@@...............@@@...
    .......@@...............@@@...
    ......@@................@@@...
    ......@@................@@@...
    ..............................
    ..............................
    ..............................
    ..............................
    ..............................
    ..............................
    ..............................
    ..............................
    ..............................

0xbf:
u+00bf:
    ..................
    ..................
    ..................
    ..................
    ..................
    ..................
    ..................
    .........@@@......
    ........@@@@@.....
    ........@@@@@.....
    ........@@@@@.....
    .........@@@......
    ..................
    ..................
    ..................
    ..........@.......
    .........@@.......
    .........@@.......
    ........@@........
    ........@@........
    .......@@.........
    ......@@@.........
    ......@@@.........
    .....@@@..........
    ....@@@@..........
    ....@@@...........
    ...@@@@......@@...
    ...@@@@.....@@@@..
    ...@@@@.....@@@@..
    ...@@@@......@@@..
    ....@@@......@@...
    ....@@@@.....@@...
    .....@@@@..@@@....
    .......@@@@@......
    ..................
    ..................
    ..................
    ..................
    ..................
    ..................
    ..................
    ..................
    ..................

0xc0:
u+00c0:
    .........@@@..................
    .........@@@@.................
    ..........@@@@................
    ............@@@...............
    ..............@@..............
    ..............................
    ..............................
    ...............@..............
    ..............@@@.............
    ..............@@@.............
    .............@@@@@............
    .............@@@@@............
    .............@@@@@@...........
    ............@@.@@@@...........
    ............@..@@@@@..........
    ...........@@...@@@@..........
    ...........@....@@@@@.........
    ..........@@.....@@@@.........
    ..........@......@@@@.........
    ..........@......@@@@@........
    .........@@.......@@@@........
    .........@........@@@@@.......
    ........@@.........@@@@.......
    ........@..........@@@@@......
    ........@@@@@@@@@@@@@@@@......
    .......@@...........@@@@......
    .......@............@@@@@.....
    ......@@.............@@@@.....
    ......@..............@@@@@....
    .....@@..............@@@@@....
    .....@@...............@@@@@...
    ....@@@...............@@@@@...
    ...@@@@@.............@@@@@@@..
    .@@@@@@@@@........@@@@@@@@@@@@
    ..............................
    ..............................
    ..............................
    ..............................
    ..............................
    ..............................
    ..............................
    ..............................
    ..............................

0xc1:
u+00c1:
    ..................@@@.........
    .................@@@@.........
    ................@@@@..........
    ...............@@@............
    ..............@@..............
    ..............................
    ..............................
    ...............@..............
    ..............@@@.............
    ..............@@@.............
    .............@@@@@............
    .............@@@@@............
    .............@@@@@@...........
    ............@@.@@@@...........
    ............@..@@@@@..........
    ...........@@...@@@@..........
    ...........@....@@@@@.........
    ..........@@.....@@@@.........
    ..........@......@@@@.........
    ..........@......@@@@@........
    .........@@.......@@@@........
    .........@........@@@@@.......
    ........@@.........@@@@.......
    ........@..........@@@@@......
    ........@@@@@@@@@@@@@@@@......
    .......@@...........@@@@......
    .......@............@@@@@.....
    ......@@.............@@@@.....
    ......@..............@@@@@....
    .....@@..............@@@@@....
    .....@@...............@@@@@...
    ....@@@...............@@@@@...
    ...@@@@@.............@@@@@@@..
    .@@@@@@@@@........@@@@@@@@@@@@
    ..............................
    ..............................
    ..............................
    ..............................
    ..............................
    ..............................
    ..............................
    ..............................
    ..............................

0xc2:
u+00c2:
    ..............@@@.............
    .............@@@@@............
    ............@@@.@@@...........
    ...........@@@...@@@..........
    ..........@@@.....@@@.........
    ..............................
    ..............................
    ...............@..............
    ..............@@@.............
    ..............@@@.............
    .............@@@@@............
    .............@@@@@............
    .............@@@@@@...........
    ............@@.@@@@...........
    ............@..@@@@@..........
    ...........@@...@@@@..........
    ...........@....@@@@@.........
    ..........@@.....@@@@.........
    ..........@......@@@@.........
    ..........@......@@@@@........
    .........@@.......@@@@........
    .........@........@@@@@.......
    ........@@.........@@@@.......
    ........@..........@@@@@......
    ........@@@@@@@@@@@@@@@@......
    .......@@...........@@@@......
    .......@............@@@@@.....
    ......@@.............@@@@.....
    ......@..............@@@@@....
    .....@@..............@@@@@....
    .....@@...............@@@@@...
    ....@@@...............@@@@@...
    ...@@@@@.............@@@@@@@..
    .@@@@@@@@@........@@@@@@@@@@@@
    ..............................
    ..............................
    ..............................
    ..............................
    ..............................
    ..............................
    ..............................
    ..............................
    ..............................

0xc3:
u+00c3:
    ..............................
    ..............................
    .............@@@@...@@........
    ...........@@@@@@@@@@@........
    ...........@@...@@@@..........
    ..............................
    ..............................
    ...............@..............
    ..............@@@.............
    ..............@@@.............
    .............@@@@@............
    .............@@@@@............
    .............@@@@@@...........
    ............@@.@@@@...........
    ............@..@@@@@..........
    ...........@@...@@@@..........
    ...........@....@@@@@.........
    ..........@@.....@@@@.........
    ..........@......@@@@.........
    ..........@......@@@@@........
    .........@@.......@@@@........
    .........@........@@@@@.......
    ........@@.........@@@@.......
    ........@..........@@@@@......
    ........@@@@@@@@@@@@@@@@......
    .......@@...........@@@@......
    .......@............@@@@@.....
    ......@@.............@@@@.....
    ......@..............@@@@@....
    .....@@..............@@@@@....
    .....@@...............@@@@@...
    ....@@@...............@@@@@...
    ...@@@@@.............@@@@@@@..
    .@@@@@@@@@........@@@@@@@@@@@@
    ..............................
    ..............................
    ..............................
    ..............................
    ..............................
    ..............................
    ..............................
    ..............................
    ..............................

0xc4:
u+00c4:
    ..............................
    ...........@@.....@@..........
    ..........@@@@...@@@@.........
    ..........@@@@...@@@@.........
    ...........@@.....@@..........
    ..............................
    ..............................
    ...............@..............
    ..............@@@.............
    ..............@@@.............
    .............@@@@@............
    .............@@@@@............
    .............@@@@@@...........
    ............@@.@@@@...........
    ............@..@@@@@..........
    ...........@@...@@@@..........
    ...........@....@@@@@.........
    ..........@@.....@@@@.........
    ..........@......@@@@.........
    ..........@......@@@@@........
    .........@@.......@@@@........
    .........@........@@@@@.......
    ........@@.........@@@@.......
    ........@..........@@@@@......
    ........@@@@@@@@@@@@@@@@......
    .......@@...........@@@@......
    .......@............@@@@@.....
    ......@@.............@@@@.....
    ......@..............@@@@@....
    .....@@..............@@@@@....
    .....@@...............@@@@@...
    ....@@@...............@@@@@...
    ...@@@@@.............@@@@@@@..
    .@@@@@@@@@........@@@@@@@@@@@@
    ..............................
    ..............................
    ..............................
    ..............................
    ..............................
    ..............................
    ..............................
    ..............................
    ..............................

0xc5:
u+00c5:
    ..............@@@@............
    .............@@..@@...........
    ............@@....@@..........
    ............@@....@@..........
    .............@@..@@...........
    ..............@@@@............
    ..............................
    ...............@..............
    ..............@@@.............
    ..............@@@.............
    .............@@@@@............
    .............@@@@@............
    .............@@@@@@...........
    ............@@.@@@@...........
    ............@..@@@@@..........
    ...........@@...@@@@..........
    ...........@....@@@@@.........
    ..........@@.....@@@@.........
    ..........@......@@@@.........
    ..........@......@@@@@........
    .........@@.......@@@@........
    .........@........@@@@@.......
    ........@@.........@@@@.......
    ........@..........@@@@@......
    ........@@@@@@@@@@@@@@@@......
    .......@@...........@@@@......
    .......@............@@@@@.....
    ......@@.............@@@@.....
    ......@..............@@@@@....
    .....@@..............@@@@@....
    .....@@...............@@@@@...
    ....@@@...............@@@@@...
    ...@@@@@.............@@@@@@@..
    .@@@@@@@@@........@@@@@@@@@@@@
    ..............................
    ..............................
    ..............................
    ..............................
    ..............................
    ..............................
    ..............................
    ..............................
    ..............................

0xc6:
u+00c6:
    ...................................
    ...................................
    ...................................
    ...................................
    ...................................
    ...................................
    ...................................
    ...........@@@@@@@@@@@@@@@@@@@@@...
    ..............@@@@@@.........@@@...
    ..............@.@@@@..........@@...
    .............@@.@@@@..........@@...
    .............@..@@@@...........@...
    ............@@..@@@@...........@...
    ............@...@@@@...............
    ...........@@...@@@@...............
    ...........@....@@@@.........@.....
    ..........@@....@@@@.........@.....
    ..........@.....@@@@........@@.....
    .........@@.....@@@@.......@@@.....
    .........@......@@@@@@@@@@@@@@.....
    ........@@......@@@@.......@@@.....
    ........@.......@@@@........@@.....
    .......@@@@@@@@@@@@@.........@.....
    .......@........@@@@.........@.....
    ......@@........@@@@...............
    ......@.........@@@@...............
    .....@@.........@@@@...............
    .....@..........@@@@.............@.
    ....@@..........@@@@.............@.
    ....@...........@@@@............@@.
    ...@@...........@@@@...........@@..
    ...@............@@@@..........@@@..
    ..@@@...........@@@@........@@@@...
    @@@@@@@......@@@@@@@@@@@@@@@@@@@...
    ...................................
    ...................................
    ...................................
    ...................................
    ...................................
    ...................................
    ...................................
    ...................................
    ...................................

0xc7:
u+00c7:
    ...........................
    ...........................
    ...........................
    ...........................
    ...........................
    ...........................
    ...........................
    ...........@@@@@@@@@@...@..
    ........@@@@@......@@@@@@..
    .......@@@@..........@@@@..
    .....@@@@.............@@@@.
    .....@@@@..............@@@.
    ....@@@@................@@.
    ...@@@@..................@.
    ...@@@@....................
    ...@@@@....................
    ..@@@@.....................
    ..@@@@.....................
    ..@@@@.....................
    ..@@@@.....................
    ..@@@@.....................
    ..@@@@.....................
    ..@@@@.....................
    ..@@@@.....................
    ..@@@@.....................
    ...@@@@....................
    ...@@@@....................
    ...@@@@....................
    ....@@@@................@@.
    .....@@@@..............@@..
    .....@@@@.............@@...
    .......@@@@.........@@@....
    ........@@@@@.....@@@......
    ...........@@@@@@@@........
    .............@@............
    .............@@............
    .............@@@@@.........
    ................@@@........
    .................@@@.......
    ..........@@.....@@@.......
    ..........@@@...@@@........
    ............@@@@@@.........
    ...........................

0xc8:
u+00c8:
    .........@@@............
    .........@@@@...........
    ..........@@@@..........
    ............@@@.........
    ..............@@........
    ........................
    ........................
    .@@@@@@@@@@@@@@@@@@@@@..
    ....@@@@@@.........@@@..
    .....@@@@...........@@..
    .....@@@@...........@@..
    .....@@@@............@..
    .....@@@@............@..
    .....@@@@...............
    .....@@@@...............
    .....@@@@..........@....
    .....@@@@..........@....
    .....@@@@.........@@....
    .....@@@@........@@@....
    .....@@@@@@@@@@@@@@@....
    .....@@@@........@@@....
    .....@@@@.........@@....
    .....@@@@..........@....
    .....@@@@..........@....
    .....@@@@...............
    .....@@@@...............
    .....@@@@...............
    .....@@@@...............
    .....@@@@..............@
    .....@@@@.............@@
    .....@@@@............@@.
    .....@@@@...........@@@.
    ....@@@@@@........@@@@..
    .@@@@@@@@@@@@@@@@@@@@@..
    ........................
    ........................
    ........................
    ........................
    ........................
    ........................
    ........................
    ........................
    ........................

0xc9:
u+00c9:
    ...............@@@......
    ..............@@@@......
    .............@@@@.......
    ............@@@.........
    ...........@@...........
    ........................
    ........................
    .@@@@@@@@@@@@@@@@@@@@@..
    ....@@@@@@.........@@@..
    .....@@@@...........@@..
    .....@@@@...........@@..
    .....@@@@............@..
    .....@@@@............@..
    .....@@@@...............
    .....@@@@...............
    .....@@@@..........@....
    .....@@@@..........@....
    .....@@@@.........@@....
    .....@@@@........@@@....
    .....@@@@@@@@@@@@@@@....
    .....@@@@........@@@....
    .....@@@@.........@@....
    .....@@@@..........@....
    .....@@@@..........@....
    .....@@@@...............
    .....@@@@...............
    .....@@@@...............
    .....@@@@...............
    .....@@@@..............@
    .....@@@@.............@@
    .....@@@@............@@.
    .....@@@@...........@@@.
    ....@@@@@@........@@@@..
    .@@@@@@@@@@@@@@@@@@@@@..
    ........................
    ........................
    ........................
    ........................
    ........................
    ........................
    ........................
    ........................
    ........................

0xca:
u+00ca:
    ...........@@@..........
    ..........@@@@@.........
    .........@@@.@@@........
    ........@@@...@@@.......
    .......@@@.....@@@......
    ........................
    ........................
    .@@@@@@@@@@@@@@@@@@@@@..
    ....@@@@@@.........@@@..
    .....@@@@...........@@..
    .....@@@@...........@@..
    .....@@@@............@..
    .....@@@@............@..
    .....@@@@...............
    .....@@@@...............
    .....@@@@..........@....
    .....@@@@..........@....
    .....@@@@.........@@....
    .....@@@@........@@@....
    .....@@@@@@@@@@@@@@@....
    .....@@@@........@@@....
    .....@@@@.........@@....
    .....@@@@..........@....
    .....@@@@..........@....
    .....@@@@...............
    .....@@@@...............
    .....@@@@...............
    .....@@@@...............
    .....@@@@..............@
    .....@@@@.............@@
    .....@@@@............@@.
    .....@@@@...........@@@.
    ....@@@@@@........@@@@..
    .@@@@@@@@@@@@@@@@@@@@@..
    ........................
    ........................
    ........................
    ........................
    ........................
    ........................
    ........................
    ........................
    ........................

0xcb:
u+00cb:
    ........................
    ........@@.....@@.......
    .......@@@@...@@@@......
    .......@@@@...@@@@......
    ........@@.....@@.......
    ........................
    ........................
    .@@@@@@@@@@@@@@@@@@@@@..
    ....@@@@@@.........@@@..
    .....@@@@...........@@..
    .....@@@@...........@@..
    .....@@@@............@..
    .....@@@@............@..
    .....@@@@...............
    .....@@@@...............
    .....@@@@..........@....
    .....@@@@..........@....
    .....@@@@.........@@....
    .....@@@@........@@@....
    .....@@@@@@@@@@@@@@@....
    .....@@@@........@@@....
    .....@@@@.........@@....
    .....@@@@..........@....
    .....@@@@..........@....
    .....@@@@...............
    .....@@@@...............
    .....@@@@...............
    .....@@@@...............
    .....@@@@..............@
    .....@@@@.............@@
    .....@@@@............@@.
    .....@@@@...........@@@.
    ....@@@@@@........@@@@..
    .@@@@@@@@@@@@@@@@@@@@@..
    ........................
    ........................
    ........................
    ........................
    ........................
    ........................
    ........................
    ........................
    ........................

0xcc:
u+00cc:
    ..@@@........
    ..@@@@.......
    ...@@@@......
    .....@@@.....
    .......@@....
    .............
    .............
    .@@@@@@@@@@@@
    ....@@@@@@...
    .....@@@@....
    .....@@@@....
    .....@@@@....
    .....@@@@....
    .....@@@@....
    .....@@@@....
    .....@@@@....
    .....@@@@....
    .....@@@@....
    .....@@@@....
    .....@@@@....
    .....@@@@....
    .....@@@@....
    .....@@@@....
    .....@@@@....
    .....@@@@....
    .....@@@@....
    .....@@@@....
    .....@@@@....
    .....@@@@....
    .....@@@@....
    .....@@@@....
    .....@@@@....
    ....@@@@@@...
    .@@@@@@@@@@@@
    .............
    .............
    .............
    .............
    .............
    .............
    .............
    .............
    .............

0xcd:
u+00cd:
    .........@@@.
    ........@@@@.
    .......@@@@..
    ......@@@....
    .....@@......
    .............
    .............
    .@@@@@@@@@@@@
    ....@@@@@@...
    .....@@@@....
    .....@@@@....
    .....@@@@....
    .....@@@@....
    .....@@@@....
    .....@@@@....
    .....@@@@....
    .....@@@@....
    .....@@@@....
    .....@@@@....
    .....@@@@....
    .....@@@@....
    .....@@@@....
    .....@@@@....
    .....@@@@....
    .....@@@@....
    .....@@@@....
    .....@@@@....
    .....@@@@....
    .....@@@@....
    .....@@@@....
    .....@@@@....
    .....@@@@....
    ....@@@@@@...
    .@@@@@@@@@@@@
    .............
    .............
    .............
    .............
    .............
    .............
    .............
    .............
    .............

0xce:
u+00ce:
    ......@@@....
    .....@@@@@...
    ....@@@.@@@..
    ...@@@...@@@.
    ..@@@.....@@@
    .............
    .............
    .@@@@@@@@@@@@
    ....@@@@@@...
    .....@@@@....
    .....@@@@....
    .....@@@@....
    .....@@@@....
    .....@@@@....
    .....@@@@....
    .....@@@@....
    .....@@@@....
    .....@@@@....
    .....@@@@....
    .....@@@@....
    .....@@@@....
    .....@@@@....
    .....@@@@....
    .....@@@@....
    .....@@@@....
    .....@@@@....
    .....@@@@....
    .....@@@@....
    .....@@@@....
    .....@@@@....
    .....@@@@....
    .....@@@@....
    ....@@@@@@...
    .@@@@@@@@@@@@
    .............
    .............
    .............
    .............
    .............
    .............
    .............
    .............
    .............

0xcf:
u+00cf:
    .............
    ...@@.....@@.
    ..@@@@...@@@@
    ..@@@@...@@@@
    ...@@.....@@.
    .............
    .............
    .@@@@@@@@@@@@
    ....@@@@@@...
    .....@@@@....
    .....@@@@....
    .....@@@@....
    .....@@@@....
    .....@@@@....
    .....@@@@....
    .....@@@@....
    .....@@@@....
    .....@@@@....
    .....@@@@....
    .....@@@@....
    .....@@@@....
    .....@@@@....
    .....@@@@....
    .....@@@@....
    .....@@@@....
    .....@@@@....
    .....@@@@....
    .....@@@@....
    .....@@@@....
    .....@@@@....
    .....@@@@....
    .....@@@@....
    ....@@@@@@...
    .@@@@@@@@@@@@
    .............
    .............
    .............
    .............
    .............
    .............
    .............
    .............
    .............

0xd0:
u+011e:
    .............................
    .........@@@.......@@@.......
    ..........@@@.....@@@........
    ...........@@@@@@@@@.........
    .............@@@@@...........
    .............................
    .............................
    ...........@@@@@@@@@@...@....
    ........@@@@@......@@@@@@....
    .......@@@@..........@@@@....
    .....@@@@.............@@@@...
    .....@@@@..............@@@...
    ....@@@@................@@...
    ...@@@@..................@...
    ...@@@@......................
    ...@@@@......................
    ..@@@@.......................
    ..@@@@.......................
    ..@@@@.......................
    ..@@@@............@@@@@@@@@@@
    ..@@@@...............@@@@@@..
    ..@@@@................@@@@...
    ..@@@@................@@@@...
    ..@@@@................@@@@...
    ..@@@@................@@@@...
    ...@@@@...............@@@@...
    ...@@@@...............@@@@...
    ...@@@@...............@@@@...
    ....@@@@..............@@@@...
    .....@@@@.............@@@@...
    .....@@@@.............@@@@...
    .......@@@@..........@@@@....
    ........@@@@@......@@@@@.....
    ...........@@@@@@@@@@@.......
    .............................
    .............................
    .............................
    .............................
    .............................
    .............................
    .............................
    .............................
    .............................

0xd1:
u+00d1:
    .............................
    .............................
    ............@@@@...@@........
    ..........@@@@@@@@@@@........
    ..........@@...@@@@..........
    .............................
    .............................
    .@@@@@@@...........@@@@@@@@@@
    ...@@@@@@.............@@@@...
    ....@@@@@@.............@@....
    .....@@@@@@............@@....
    .....@@@@@@............@@....
    .....@@@@@@@...........@@....
    .....@@.@@@@@..........@@....
    .....@@..@@@@@.........@@....
    .....@@...@@@@@........@@....
    .....@@...@@@@@........@@....
    .....@@....@@@@@.......@@....
    .....@@.....@@@@@......@@....
    .....@@......@@@@@.....@@....
    .....@@......@@@@@@....@@....
    .....@@.......@@@@@....@@....
    .....@@........@@@@@...@@....
    .....@@.........@@@@@..@@....
    .....@@.........@@@@@@.@@....
    .....@@..........@@@@@.@@....
    .....@@...........@@@@@@@....
    .....@@............@@@@@@....
    .....@@.............@@@@@....
    .....@@.............@@@@@....
    .....@@..............@@@@....
    .....@@...............@@@....
    ....@@@@...............@@....
    .@@@@@@@@@@.............@....
    .............................
    .............................
    .............................
    .............................
    .............................
    .............................
    .............................
    .............................
    .............................

0xd2:
u+00d2:
    ..........@@@................
    ..........@@@@...............
    ...........@@@@..............
    .............@@@.............
    ...............@@............
    .............................
    .............................
    ...........@@@@@@@@..........
    ........@@@@@....@@@@@.......
    .......@@@@........@@@@......
    .....@@@@............@@@@....
    .....@@@@............@@@@....
    ....@@@@..............@@@@...
    ...@@@@................@@@@..
    ...@@@@................@@@@..
    ...@@@@................@@@@..
    ..@@@@..................@@@@.
    ..@@@@..................@@@@.
    ..@@@@..................@@@@.
    ..@@@@..................@@@@.
    ..@@@@..................@@@@.
    ..@@@@..................@@@@.
    ..@@@@..................@@@@.
    ..@@@@..................@@@@.
    ..@@@@..................@@@@.
    ...@@@@................@@@@..
    ...@@@@................@@@@..
    ...@@@@................@@@@..
    ....@@@@..............@@@@...
    .....@@@@............@@@@....
    .....@@@@............@@@@....
    .......@@@@........@@@@......
    ........@@@@@....@@@@@.......
    ...........@@@@@@@@..........
    .............................
    .............................
    .............................
    .............................
    .............................
    .............................
    .............................
    .............................
    .............................

0xd3:
u+00d3:
    .................@@@.........
    ................@@@@.........
    ...............@@@@..........
    ..............@@@............
    .............@@..............
    .............................
    .............................
    ...........@@@@@@@@..........
    ........@@@@@....@@@@@.......
    .......@@@@........@@@@......
    .....@@@@............@@@@....
    .....@@@@............@@@@....
    ....@@@@..............@@@@...
    ...@@@@................@@@@..
    ...@@@@................@@@@..
    ...@@@@................@@@@..
    ..@@@@..................@@@@.
    ..@@@@..................@@@@.
    ..@@@@..................@@@@.
    ..@@@@..................@@@@.
    ..@@@@..................@@@@.
    ..@@@@..................@@@@.
    ..@@@@..................@@@@.
    ..@@@@..................@@@@.
    ..@@@@..................@@@@.
    ...@@@@................@@@@..
    ...@@@@................@@@@..
    ...@@@@................@@@@..
    ....@@@@..............@@@@...
    .....@@@@............@@@@....
    .....@@@@............@@@@....
    .......@@@@........@@@@......
    ........@@@@@....@@@@@.......
    ...........@@@@@@@@..........
    .............................
    .............................
    .............................
    .............................
    .............................
    .............................
    .............................
    .............................
    .............................

0xd4:
u+00d4:
    ..............@@@............
    .............@@@@@...........
    ............@@@.@@@..........
    ...........@@@...@@@.........
    ..........@@@.....@@@........
    .............................
    .............................
    ...........@@@@@@@@..........
    ........@@@@@....@@@@@.......
    .......@@@@........@@@@......
    .....@@@@............@@@@....
    .....@@@@............@@@@....
    ....@@@@..............@@@@...
    ...@@@@................@@@@..
    ...@@@@................@@@@..
    ...@@@@................@@@@..
    ..@@@@..................@@@@.
    ..@@@@..................@@@@.
    ..@@@@..................@@@@.
    ..@@@@..................@@@@.
    ..@@@@..................@@@@.
    ..@@@@..................@@@@.
    ..@@@@..................@@@@.
    ..@@@@..................@@@@.
    ..@@@@..................@@@@.
    ...@@@@................@@@@..
    ...@@@@................@@@@..
    ...@@@@................@@@@..
    ....@@@@..............@@@@...
    .....@@@@............@@@@....
    .....@@@@............@@@@....
    .......@@@@........@@@@......
    ........@@@@@....@@@@@.......
    ...........@@@@@@@@..........
    .............................
    .............................
    .............................
    .............................
    .............................
    .............................
    .............................
    .............................
    .............................

0xd5:
u+00d5:
    .............................
    .............................
    ............@@@@...@@........
    ..........@@@@@@@@@@@........
    ..........@@...@@@@..........
    .............................
    .............................
    ...........@@@@@@@@..........
    ........@@@@@....@@@@@.......
    .......@@@@........@@@@......
    .....@@@@............@@@@....
    .....@@@@............@@@@....
    ....@@@@..............@@@@...
    ...@@@@................@@@@..
    ...@@@@................@@@@..
    ...@@@@................@@@@..
    ..@@@@..................@@@@.
    ..@@@@..................@@@@.
    ..@@@@..................@@@@.
    ..@@@@..................@@@@.
    ..@@@@..................@@@@.
    ..@@@@..................@@@@.
    ..@@@@..................@@@@.
    ..@@@@..................@@@@.
    ..@@@@..................@@@@.
    ...@@@@................@@@@..
    ...@@@@................@@@@..
    ...@@@@................@@@@..
    ....@@@@..............@@@@...
    .....@@@@............@@@@....
    .....@@@@............@@@@....
    .......@@@@........@@@@......
    ........@@@@@....@@@@@.......
    ...........@@@@@@@@..........
    .............................
    .............................
    .............................
    .............................
    .............................
    .............................
    .............................
    .............................
    .............................

0xd6:
u+00d6:
    .............................
    ..........@@.....@@..........
    .........@@@@...@@@@.........
    .........@@@@...@@@@.........
    ..........@@.....@@..........
    .............................
    .............................
    ...........@@@@@@@@..........
    ........@@@@@....@@@@@.......
    .......@@@@........@@@@......
    .....@@@@............@@@@....
    .....@@@@............@@@@....
    ....@@@@..............@@@@...
    ...@@@@................@@@@..
    ...@@@@................@@@@..
    ...@@@@................@@@@..
    ..@@@@..................@@@@.
    ..@@@@..................@@@@.
    ..@@@@..................@@@@.
    ..@@@@..................@@@@.
    ..@@@@..................@@@@.
    ..@@@@..................@@@@.
    ..@@@@..................@@@@.
    ..@@@@..................@@@@.
    ..@@@@..................@@@@.
    ...@@@@................@@@@..
    ...@@@@................@@@@..
    ...@@@@................@@@@..
    ....@@@@..............@@@@...
    .....@@@@............@@@@....
    .....@@@@............@@@@....
    .......@@@@........@@@@......
    ........@@@@@....@@@@@.......
    ...........@@@@@@@@..........
    .............................
    .............................
    .............................
    .............................
    .............................
    .............................
    .............................
    .............................
    .............................

0xd7:
u+00d7:
    ......................
    ......................
    ......................
    ......................
    ......................
    ......................
    ......................
    ......................
    ......................
    ......................
    ......................
    ......................
    ...@...............@..
    ..@@@.............@@@.
    ...@@@...........@@@..
    ....@@@.........@@@...
    .....@@@.......@@@....
    ......@@@.....@@@.....
    .......@@@...@@@......
    ........@@@.@@@.......
    .........@@@@@........
    ..........@@@.........
    .........@@@@@........
    ........@@@.@@@.......
    .......@@@...@@@......
    ......@@@.....@@@.....
    .....@@@.......@@@....
    ....@@@.........@@@...
    ...@@@...........@@@..
    ..@@@.............@@@.
    ...@...............@..
    ......................
    ......................
    ......................
    ......................
    ......................
    ......................
    ......................
    ......................
    ......................
    ......................
    ......................
    ......................

0xd8:
u+00d8:
    .............................
    .............................
    .............................
    .............................
    .............................
    .....................@@......
    .....................@@......
    ...........@@@@@@@@.@@.......
    ........@@@@@....@@@@@.......
    .......@@@@.......@@@@@......
    .....@@@@.........@@.@@@@....
    .....@@@@........@@..@@@@....
    ....@@@@.........@@...@@@@...
    ...@@@@.........@@.....@@@@..
    ...@@@@.........@@.....@@@@..
    ...@@@@........@@......@@@@..
    ..@@@@.........@@.......@@@@.
    ..@@@@........@@........@@@@.
    ..@@@@........@@........@@@@.
    ..@@@@.......@@.........@@@@.
    ..@@@@.......@@.........@@@@.
    ..@@@@......@@..........@@@@.
    ..@@@@......@@..........@@@@.
    ..@@@@.....@@...........@@@@.
    ..@@@@.....@@...........@@@@.
    ...@@@@...@@...........@@@@..
    ...@@@@...@@...........@@@@..
    ...@@@@..@@............@@@@..
    ....@@@@.@@...........@@@@...
    .....@@@@@...........@@@@....
    .....@@@@............@@@@....
    ......@@@@@........@@@@......
    ......@@@@@@@....@@@@@.......
    .....@@....@@@@@@@@..........
    .....@@......................
    ....@@.......................
    .............................
    .............................
    .............................
    .............................
    .............................
    .............................
    .............................

0xd9:
u+00d9:
    ..........@@@................
    ..........@@@@...............
    ...........@@@@..............
    .............@@@.............
    ...............@@............
    .............................
    .............................
    .@@@@@@@@@@@@......@@@@@@@@@@
    ....@@@@@@............@@@@...
    .....@@@@..............@@....
    .....@@@@..............@@....
    .....@@@@..............@@....
    .....@@@@..............@@....
    .....@@@@..............@@....
    .....@@@@..............@@....
    .....@@@@..............@@....
    .....@@@@..............@@....
    .....@@@@..............@@....
    .....@@@@..............@@....
    .....@@@@..............@@....
    .....@@@@..............@@....
    .....@@@@..............@@....
    .....@@@@..............@@....
    .....@@@@..............@@....
    .....@@@@..............@@....
    .....@@@@..............@@....
    .....@@@@..............@@....
    .....@@@@..............@@....
    ......@@@@............@@.....
    ......@@@@............@@.....
    .......@@@@..........@@......
    .......@@@@@@......@@@@......
    .........@@@@@@@@@@@@........
    ...........@@@@@@@@..........
    .............................
    .............................
    .............................
    .............................
    .............................
    .............................
    .............................
    .............................
    .............................

0xda:
u+00da:
    .................@@@.........
    ................@@@@.........
    ...............@@@@..........
    ..............@@@............
    .............@@..............
    .............................
    .............................
    .@@@@@@@@@@@@......@@@@@@@@@@
    ....@@@@@@............@@@@...
    .....@@@@..............@@....
    .....@@@@..............@@....
    .....@@@@..............@@....
    .....@@@@..............@@....
    .....@@@@..............@@....
    .....@@@@..............@@....
    .....@@@@..............@@....
    .....@@@@..............@@....
    .....@@@@..............@@....
    .....@@@@..............@@....
    .....@@@@..............@@....
    .....@@@@..............@@....
    .....@@@@..............@@....
    .....@@@@..............@@....
    .....@@@@..............@@....
    .....@@@@..............@@....
    .....@@@@..............@@....
    .....@@@@..............@@....
    .....@@@@..............@@....
    ......@@@@............@@.....
    ......@@@@............@@.....
    .......@@@@..........@@......
    .......@@@@@@......@@@@......
    .........@@@@@@@@@@@@........
    ...........@@@@@@@@..........
    .............................
    .............................
    .............................
    .............................
    .............................
    .............................
    .............................
    .............................
    .............................

0xdb:
u+00db:
    ..............@@@............
    .............@@@@@...........
    ............@@@.@@@..........
    ...........@@@...@@@.........
    ..........@@@.....@@@........
    .............................
    .............................
    .@@@@@@@@@@@@......@@@@@@@@@@
    ....@@@@@@............@@@@...
    .....@@@@..............@@....
    .....@@@@..............@@....
    .....@@@@..............@@....
    .....@@@@..............@@....
    .....@@@@..............@@....
    .....@@@@..............@@....
    .....@@@@..............@@....
    .....@@@@..............@@....
    .....@@@@..............@@....
    .....@@@@..............@@....
    .....@@@@..............@@....
    .....@@@@..............@@....
    .....@@@@..............@@....
    .....@@@@..............@@....
    .....@@@@..............@@....
    .....@@@@..............@@....
    .....@@@@..............@@....
    .....@@@@..............@@....
    .....@@@@..............@@....
    ......@@@@............@@.....
    ......@@@@............@@.....
    .......@@@@..........@@......
    .......@@@@@@......@@@@......
    .........@@@@@@@@@@@@........
    ...........@@@@@@@@..........
    .............................
    .............................
    .............................
    .............................
    .............................
    .............................
    .............................
    .............................
    .............................

0xdc:
u+00dc:
    .............................
    ...........@@.....@@.........
    ..........@@@@...@@@@........
    ..........@@@@...@@@@........
    ...........@@.....@@.........
    .............................
    .............................
    .@@@@@@@@@@@@......@@@@@@@@@@
    ....@@@@@@............@@@@...
    .....@@@@..............@@....
    .....@@@@..............@@....
    .....@@@@..............@@....
    .....@@@@..............@@....
    .....@@@@..............@@....
    .....@@@@..............@@....
    .....@@@@..............@@....
    .....@@@@..............@@....
    .....@@@@..............@@....
    .....@@@@..............@@....
    .....@@@@..............@@....
    .....@@@@..............@@....
    .....@@@@..............@@....
    .....@@@@..............@@....
    .....@@@@..............@@....
    .....@@@@..............@@....
    .....@@@@..............@@....
    .....@@@@..............@@....
    .....@@@@..............@@....
    ......@@@@............@@.....
    ......@@@@............@@.....
    .......@@@@..........@@......
    .......@@@@@@......@@@@......
    .........@@@@@@@@@@@@........
    ...........@@@@@@@@..........
    .............................
    .............................
    .............................
    .............................
    .............................
    .............................
    .............................
    .............................
    .............................

0xdd:
u+0130:
    .............
    ......@@.....
    .....@@@@....
    .....@@@@....
    ......@@.....
    .............
    .............
    .@@@@@@@@@@@@
    ....@@@@@@...
    .....@@@@....
    .....@@@@....
    .....@@@@....
    .....@@@@....
    .....@@@@....
    .....@@@@....
    .....@@@@....
    .....@@@@....
    .....@@@@....
    .....@@@@....
    .....@@@@....
    .....@@@@....
    .....@@@@....
    .....@@@@....
    .....@@@@....
    .....@@@@....
    .....@@@@....
    .....@@@@....
    .....@@@@....
    .....@@@@....
    .....@@@@....
    .....@@@@....
    .....@@@@....
    ....@@@@@@...
    .@@@@@@@@@@@@
    .............
    .............
    .............
    .............
    .............
    .............
    .............
    .............
    .............

